<svg xmlns="http://www.w3.org/2000/svg" width="150" height="100" viewBox="0 0 150 100">
  <g id="グループ_9" data-name="グループ 9" transform="translate(-2099.695 -319.195)">
    <g id="グループ_1" data-name="グループ 1" transform="translate(2099.695 407.132)">
      <path id="パス_4" data-name="パス 4" d="M2099.7,513.41l.4-.174a.936.936,0,0,1,.054.155c-.124.07-.255.128-.385.188Z" transform="translate(-2099.695 -513.236)" fill="#0c3117"/>
    </g>
    <g id="グループ_2" data-name="グループ 2" transform="translate(2200.884 330.815)">
      <path id="パス_5" data-name="パス 5" d="M2336.22,338.277c.132.032.377.015.467.125.732.9,1.777,1.547,2.121,2.757.18.632.2.952-.371,1.25a8.023,8.023,0,0,1-2.323.854,1.776,1.776,0,0,1-1.729-.881,3.071,3.071,0,0,1-.322-.668c-.735-2.076-.314-2.3,1.469-3.338A2.054,2.054,0,0,1,2336.22,338.277Zm1.264,3.084c-.167-.286-.231-.563-.386-.631a9.2,9.2,0,0,0-1.521-.5c-.078-.019-.288.22-.327.369a1.121,1.121,0,0,0,1.367,1.258A5.069,5.069,0,0,0,2337.484,341.361Z" transform="translate(-2333.72 -338.277)" fill="#0c3117"/>
    </g>
    <g id="グループ_3" data-name="グループ 3" transform="translate(2126.106 360.373)">
      <path id="パス_6" data-name="パス 6" d="M2169.739,409.793c-.811-.07-1.7-.214-2.591-.206a13.7,13.7,0,0,0-3.4.189,1.743,1.743,0,0,1-1.759-.555.746.746,0,0,1-.111-1,.619.619,0,0,1,.938-.289,2.5,2.5,0,0,0,1.514.28q2.828.015,5.656.069c.368.007.733.118,1.1.156a11.871,11.871,0,0,0,2.108.166c.845-.066,1.244.654,1.166,1.5-.012.138-.3.346-.464.356a3.622,3.622,0,0,1-1.093-.11A12.037,12.037,0,0,0,2169.739,409.793Z" transform="translate(-2161.735 -407.813)" fill="#0c3117"/>
    </g>
    <g id="グループ_4" data-name="グループ 4" transform="translate(2125.426 343.679)">
      <path id="パス_7" data-name="パス 7" d="M2171.381,374.578c-2.479-.164-4.958-.322-7.436-.5-.955-.068-1.908-.169-2.861-.27a.828.828,0,0,1-.793-.524c-.3-.753-.116-1.2.682-1.37a2.168,2.168,0,0,1,.815.034,9.848,9.848,0,0,0,1.077.27c2.883.189,5.75.72,8.657.433a1.892,1.892,0,0,1,.458,0c.578.085.92.361.935.737a1.218,1.218,0,0,1-.892,1.058c-.209.046-.427.054-.641.08Z" transform="translate(-2160.155 -371.89)" fill="#0c3117"/>
    </g>
    <g id="グループ_5" data-name="グループ 5" transform="translate(2125.454 331.479)">
      <path id="パス_8" data-name="パス 8" d="M2171.839,341.593c-.956,0-1.913.033-2.867-.01-.8-.036-1.584-.2-2.38-.239-1.692-.076-3.387-.092-5.079-.155-1.032-.038-1.429-.672-.931-1.436a.983.983,0,0,1,1.056-.372c1.346.118,2.695.2,4.043.292.433.029.866.048,1.3.05.33,0,.66-.042.99-.041a2.735,2.735,0,0,1,.908.068,3,3,0,0,0,2.092-.006,1.419,1.419,0,0,1,1.476.217,2.967,2.967,0,0,0,1.389.7c.157.028.417.326.387.4-.085.2-.276.451-.459.482-.633.109-1.28.132-1.921.188Z" transform="translate(-2160.368 -339.366)" fill="#0c3117"/>
    </g>
    <g id="グループ_6" data-name="グループ 6" transform="translate(2125.253 376.353)">
      <path id="パス_9" data-name="パス 9" d="M2160.695,442.177a32.637,32.637,0,0,0,3.706.084,51.3,51.3,0,0,1,5.378-.094,4.113,4.113,0,0,0,.823-.119,1.068,1.068,0,0,1,1.257.674,1.03,1.03,0,0,1-.308,1.17.742.742,0,0,1-.765.149c-.666-.127-1.337-.234-2.011-.307a29.344,29.344,0,0,0-5.541-.014c-.894.073-1.8.052-2.694.08a.829.829,0,0,1-.838-.607,1.055,1.055,0,0,1,.236-.826c.15-.18.483-.208.736-.3Z" transform="translate(-2159.681 -442.022)" fill="#0c3117"/>
    </g>
    <g id="グループ_7" data-name="グループ 7" transform="translate(2137.375 321.175)">
      <path id="パス_10" data-name="パス 10" d="M2161.569,323.08l.284-.634.941.508-.027.125Z" transform="translate(-2161.569 -322.446)" fill="#0c3117"/>
    </g>
    <g id="グループ_8" data-name="グループ 8" transform="translate(2140.628 323.066)">
      <path id="パス_11" data-name="パス 11" d="M2193.672,325.7l1.469-.152c-.437.418-.947.3-1.434.345C2193.7,325.833,2193.684,325.768,2193.672,325.7Z" transform="translate(-2193.672 -325.552)" fill="#0c3117"/>
    </g>
    <path id="パス_12" data-name="パス 12" d="M2250.716,320.717a.99.99,0,0,0-.062-.395c-.165-.35-.354-.687-.574-1.109-.866,0-1.816,0-2.766,0-1.68,0-3.36-.017-5.041-.018-1.347,0-2.694.018-4.041.018-1.749,0-3.5-.014-5.247-.008-1.214,0-2.428.044-3.642.048-.685,0-1.37-.054-2.055-.055-2.477,0-4.954.006-7.43.007-1.814,0-3.629-.005-5.443-.005-1.26,0-2.519.006-3.779,0-1.77,0-3.539-.015-5.308-.007-1.216.005-2.431.057-3.647.056-2.056,0-4.113-.032-6.17-.041-1.083,0-2.167.017-3.25.015-1.747,0-3.492-.024-5.239-.025-1.388,0-2.777.02-4.165.023q-2.555,0-5.109,0-2.651,0-5.3-.013c-.925,0-1.852-.007-2.776,0-1.764.006-3.528.02-5.292.023-1.656,0-3.312-.011-4.968,0-1.455.006-2.91.033-4.366.043-.886.006-1.771-.014-2.657-.005-1.973.021-3.946.07-5.918.077-1.928.007-3.855-.037-5.783-.037-2.595,0-5.19.032-7.786.033-1.993,0-3.986-.034-5.979-.036-3.147,0-6.294.011-9.44.015-2.972,0-5.943,0-8.916.011-1.326,0-2.652.038-3.978.05-.551,0-1.1-.037-1.654-.017-.419.015-.581.27-.555.706.041.706.089,1.414.084,2.121-.007,1.04.308,1.449,1.255,1.528l.936.076c.013.193.035.328.029.462-.033.8-.082,1.6-.106,2.4-.011.377.022.756.034,1.134a2.047,2.047,0,0,0,.022.566c.357,1.043.074,2.126.193,3.187.1.937.02,1.9.053,2.846a15.616,15.616,0,0,1,.034,2.633,5.489,5.489,0,0,0,.1,1.194c.021.237.057.473.058.71,0,.877-.016,1.754-.017,2.63,0,1.665-.005,3.329.006,4.993.011,1.614.07,3.228.05,4.842a24.958,24.958,0,0,0-.014,3.545,34.919,34.919,0,0,1,.076,4.188q.007,1.559-.019,3.117c-.016,1.039-.132,2.084-.061,3.115.147,2.123-.1,4.226-.162,6.338-.035,1.259-.229,2.519-.189,3.772a37.3,37.3,0,0,1-.176,3.983,4.1,4.1,0,0,0,.007.636c.1,1.228.21,2.455.3,3.684.039.522.224.793.711.853.171.021.343.036.514.057q2.1,16.639,5.547,33.026l.2.161a.436.436,0,0,1,.128.481l.027.031a3.241,3.241,0,0,0,.4.275c.121-.009.242-.015.363-.022.139-.135.265-.287.4-.441a.306.306,0,0,1,.17-.1,208.235,208.235,0,0,1,5.636-27q6.6,13.452,13.07,26.972l-.023.053a.906.906,0,0,0-.183.038,2.025,2.025,0,0,0,.084.429l.013.015a5.95,5.95,0,0,0,.649.6c.256-.23.52-.449.787-.667a.523.523,0,0,0-.066-.071.439.439,0,0,0,.093-.269.516.516,0,0,0-.267-.439q4.853-11.306,9.808-22.561,3.555,11.9,7.8,23.551a3.571,3.571,0,0,0,1.015-.015q1.6-15.936,3.605-31.819c.559.078,1.119.158,1.68.227a.737.737,0,0,0,.436-.112,1.557,1.557,0,0,0,.842-1.42,1.846,1.846,0,0,1,.095-.627,4.66,4.66,0,0,0,.213-2.357,3.107,3.107,0,0,1,0-.855,30.006,30.006,0,0,0,.119-5.556,10.686,10.686,0,0,1-.059-3.541c.031-.115-.058-.266-.084-.4-.056-.3-.128-.593-.156-.894-.035-.378-.033-.761-.043-1.142-.027-1.02-.125-2.046-.06-3.06.139-2.185.247-4.368.226-6.559a4.111,4.111,0,0,1,.255-1.744,1.618,1.618,0,0,0,.107-1.15,5.685,5.685,0,0,1-.213-2.356c.474-.513.357-1.022.136-1.65a5.179,5.179,0,0,1-.094-1.7c.009-.975.053-1.95.079-2.926.011-.428,0-.857.022-1.284.073-1.447.18-2.892.229-4.34.04-1.162.009-2.325.024-3.488.006-.543.155-.659.665-.6.526.064,1.053.145,1.582.179a9.188,9.188,0,0,0,1.592.009,13.525,13.525,0,0,1,2.242-.115c1.436.075,2.879,0,4.32-.031.7-.015,1.405-.1,2.107-.1,1.852,0,3.7.015,5.554.041,1.747.024,3.493.069,5.24.106.2,0,.4.018.6.032.593.044,1.186.094,1.779.137,1.145.082,2.292.149,3.436.246.994.085,1.983.258,2.977.295,1.593.058,3.189.01,4.783.053a33.461,33.461,0,0,0,4.851-.033,2.7,2.7,0,0,1,.331,0c.683.007,1.367.029,2.05.013.5-.011,1.008-.083,1.513-.109.485-.024.971-.031,1.457-.032.4,0,.794,0,1.19.029.681.049,1.36.144,2.042.173s1.372,0,2.059,0c1.309.008,2.617.013,3.925.033,1.282.02,2.563.053,3.846.09.662.019,1.324.094,1.984.081,1.127-.022,2.253-.1,3.379-.144,1.194-.051,2.388-.116,3.582-.141,1.04-.022,2.079.03,3.118,0,2.013-.054,4.026-.159,6.04-.208,1.748-.043,3.5-.041,5.247-.056.551,0,1.1,0,1.687,0,.339.454.1.939.108,1.4.011,1.377-.009,2.755-.014,4.132q-.012,3.1-.021,6.2c0,.214.017.428.03.642.086,1.495.184,2.989.257,4.485.043.878.047,1.759.073,2.638.011.351.042.7.054,1.052.034.993.062,1.986.092,2.98a20.181,20.181,0,0,1,.109,2.4,12.765,12.765,0,0,0,.12,3.418.707.707,0,0,1,.032.347c-.337.8.009,1.627-.1,2.448a22.025,22.025,0,0,0,.026,2.348c-.013.517-.168,1.029-.2,1.546-.108,2-.2,3.994-.281,5.991-.03.686-.033,1.372-.046,2.059,0,.143.006.286.011.429.046,1.854.088,3.708.142,5.561.016.544.073,1.087.094,1.631.009.236-.031.474-.037.711-.009.306-.015.613,0,.918.009.26.061.52.061.78,0,1.136-.021,2.272-.013,3.408,0,.354.1.705.109,1.059.041,1.2.049,2.4.1,3.6a11.759,11.759,0,0,0,.184,1.906c.114.552-.048,1.1.051,1.62a15.675,15.675,0,0,1-.017,3.119,19.42,19.42,0,0,0,.264,4.12,15.9,15.9,0,0,1,.273,2.322,1.489,1.489,0,0,0,.056.487,9.424,9.424,0,0,0,.632,1.244c.422.654,1.094,1.095,1.828.334a1.4,1.4,0,0,1,.275-.2,2.447,2.447,0,0,0,1.118-1.34c-.068-.455-.137-.768-.155-1.084-.027-.466-.032-.936-.019-1.4a11.16,11.16,0,0,1,.02-1.839,8.738,8.738,0,0,0-.093-1.4c.013-1.162.083-2.322.1-3.483.023-1.591.015-3.184.025-4.776,0-.714.049-1.429.023-2.141-.06-1.662-.156-3.323-.225-4.986-.021-.521.014-1.045,0-1.567a28.973,28.973,0,0,1-.086-3.113,31.763,31.763,0,0,0-.083-3.406,8.815,8.815,0,0,1,.136-1.61c.118.375.118.375.385.538.19-.414.2-.558-.1-.671-.484-.182-.551-.546-.552-1.006,0-1.565.027-3.132-.032-4.694-.061-1.612-.213-3.22-.317-4.83-.022-.354,0-.71-.012-1.065-.022-.9-.051-1.8-.074-2.7-.011-.448-.041-.9-.013-1.344.053-.852.207-1.7.2-2.551-.018-3.733-.076-7.466-.12-11.2-.018-1.5-.033-2.991-.056-4.487,0-.285-.064-.57-.051-.853.066-1.469.151-2.937.221-4.405a32.763,32.763,0,0,1,.2-3.459,28.336,28.336,0,0,0,.152-3.844c.03-2.044.02-4.088.054-6.132.018-1.095.1-2.188.141-3.283.039-.995.069-1.99.095-2.985a1.418,1.418,0,0,0-.054-.49,2.636,2.636,0,0,1,.046-1.208c.147.066.221.1.3.134.627.244,1.051-.055,1.05-.754C2250.741,322.666,2250.729,321.691,2250.716,320.717ZM2112.509,417.6q-3.427-16.276-5.531-32.823c.525.058,1.05.122,1.576.173.749.073,1.5.115,2.25.174,1.036.082,2.071.229,3.107.236.751.005,1.5-.02,2.249,0,.746,1.513,1.48,3.032,2.224,4.546A208.154,208.154,0,0,0,2112.509,417.6Zm6.24-28.957c-.525-1.069-1.043-2.141-1.569-3.209.253.029.507.065.76.116.1.02.2.035.295.052a.919.919,0,0,1,.547-.173c.309,0,.616.013.925.024Q2119.215,387.04,2118.748,388.638Zm13.745,28.342q-6.514-13.625-13.172-27.171.62-2.166,1.288-4.318a64.072,64.072,0,0,1,7.066.842c.5.006,1.01,0,1.513-.022a21.058,21.058,0,0,1,2.354.05c.651.044,1.308.146,1.969.135.706-.011,1.41-.036,2.116-.033a2.294,2.294,0,0,1,.915.1,2.882,2.882,0,0,0,1.441.219,1.093,1.093,0,0,1,.275-.04h.1c.328-.045.656-.111.985-.164.354-.057.709-.106,1.064-.155q1.031,3.742,2.131,7.46Q2137.473,405.409,2132.493,416.979Zm8.911-30.249c.621-.037,1.241-.062,1.861-.078l.043-.039a.946.946,0,0,1,.538-.24,7.21,7.21,0,0,1,.995.005l.982.033c-.917,2.072-1.823,4.15-2.735,6.224Q2142.226,389.69,2141.4,386.73Zm9.632,30.313q-4.111-11.423-7.566-23.1c1.1-2.5,2.191-5.007,3.3-7.5,1.129.04,2.259.08,3.388.115.972.029,1.949-.018,2.917.07.473.043.944.1,1.416.162Q2152.572,401.891,2151.036,417.043Zm6.64-37.046a11.109,11.109,0,0,0-.1,2.342.615.615,0,0,1-.032.35c-.348.517-.16,1.1-.211,1.651a11.359,11.359,0,0,1-.247,1.259,3.3,3.3,0,0,1-1.788.054,3.446,3.446,0,0,0-.659-.056c-1.15.071-2.307.089-3.445.256a18.162,18.162,0,0,1-4.1-.072c-.135-.011-.271-.016-.406-.023a.372.372,0,0,0-.54-.022c-.612-.016-1.226-.012-1.838-.019-.864-.01-1.728-.02-2.592,0-.282.006-.564.017-.847.027a.448.448,0,0,0-.183.006c-.629.023-1.258.049-1.887.07a1.983,1.983,0,0,1-.4-.019,32.945,32.945,0,0,0-4.16-.277c-2.189-.087-4.377-.175-6.563-.3-1.28-.075-2.554-.265-3.834-.334-1.02-.055-2.042-.04-3.063-.061a.436.436,0,0,0-.856-.107l-.023.074c-.667-.043-1.327-.2-1.994-.26-.41-.038-.823-.065-1.234-.091a.387.387,0,0,0-.635-.039c-.278-.016-.556-.031-.834-.049-.395-.025-.79-.038-1.185-.063-1.388-.089-2.78-.133-4.161-.289a6.771,6.771,0,0,1-2.638-.563,1.1,1.1,0,0,0-.507-.059.47.47,0,0,0-.59-.131c-.182-.106-.261-.288-.277-.618a31.437,31.437,0,0,1-.083-5.973,5.634,5.634,0,0,0,0-1.626,13.257,13.257,0,0,1,.128-2.9,6.166,6.166,0,0,0,.042-.846c-.026-.335.117-.526.387-.553a5.331,5.331,0,0,1,1.839-.054,8.976,8.976,0,0,0,2.243.115,30.1,30.1,0,0,1,3.216.11c1.521.125,3.031.341,4.566.338,1.5,0,3.007.2,4.512.271.726.033,1.455-.051,2.183-.059a12.7,12.7,0,0,0,1.316.045,29.671,29.671,0,0,1,3.83.169c.218,0,.433.109.652.122a3.643,3.643,0,0,0,1.054-.017,2.563,2.563,0,0,1,.7-.031c.66.015,1.321-.07,1.982-.09.972-.029,1.946-.078,2.916-.036.637.028,1.267.223,1.9.3,1.272.158,2.557.226,3.819.447a15.591,15.591,0,0,0,3.577.147,9.811,9.811,0,0,1,2.7.284,12.169,12.169,0,0,0,1.786.149,2.118,2.118,0,0,1,.526.037,7.853,7.853,0,0,0,2.7.186c.375,0,.673.195,1.013.2.635.008,1.272-.033,2-.057a5.5,5.5,0,0,1,.2,1.945c.025.4.062.8.083,1.194.027.52.053,1.041.061,1.562A14.582,14.582,0,0,1,2157.676,380Zm.08-22.723a4.294,4.294,0,0,0-.079,1.831,16.911,16.911,0,0,1-.056,3.2c-.15,1.082-.107,2.165-.18,3.243-.059.877-.2,1.741-.246,2.614-.037.707.081,1.422.11,2.135.02.491,0,.984,0,1.4l-1.325.311a.836.836,0,0,1-.2.033,11.2,11.2,0,0,1-2.11-.055c-.84-.173-1.678-.036-2.51-.152-.653-.092-1.308-.184-1.965-.241-.551-.047-1.1-.035-1.657-.062-1.394-.07-2.791-.249-4.18-.2-1.613.063-3.166-.365-4.754-.442-1.083-.053-2.168-.056-3.252-.081-.707-.017-1.415-.066-2.121-.044-1.154.037-2.294-.124-3.44-.191-.948-.055-1.9-.031-2.85-.065-.527-.02-1.052-.094-1.58-.132-.242-.017-.487,0-.73-.013-1.26-.06-2.519-.129-3.779-.184-.575-.026-1.15-.012-1.724-.045-2.033-.116-4.064-.258-6.1-.36-1.1-.055-2.2-.037-3.306-.072-.44-.014-.879-.1-1.32-.114a11.089,11.089,0,0,0-1.181.055c-.129.01-.256.1-.383.094-.781-.03-.918-.182-.833-1.052a31.6,31.6,0,0,0,.012-3.918c-.029-1.14.023-2.281.036-3.423.014-1.261.034-2.521.032-3.782,0-.851-.036-1.7-.061-2.712.617-.042,1.25-.117,1.884-.12,1.108,0,2.218.021,3.325.066a9.4,9.4,0,0,1,1.1.195,4.608,4.608,0,0,0,.724.081q4.625.018,9.251.023,4.486.006,8.972.007l10.159.011c1.241,0,2.481-.005,3.722-.006h7.43q2.192,0,4.384.007c.238,0,.475.033.751.054A6.394,6.394,0,0,1,2157.756,357.274Zm.4-14.542c0,.306,0,.613,0,.919-.006.756,0,1.512-.02,2.268-.019.781-.046,1.563-.1,2.343-.051.8-.148,1.6-.2,2.4-.029.472-.01.948-.009,1.423,0,.426.015.853.01,1.279-.005.5-.022.526-.489.536-.931.02-1.863.021-2.794.023q-5.023.008-10.046.01-4.455,0-8.91-.011c-3.414,0-6.829-.009-10.243,0-2.86.008-5.72.04-8.58.055-1.128.006-2.256.006-3.384-.019a5.546,5.546,0,0,1-.9-.172,3.789,3.789,0,0,0-.649-.114c-1.441-.023-2.882-.043-4.323-.038-.592,0-1.185.066-1.843.107a12.106,12.106,0,0,0,.357-3.816c.029-.758-.077-1.521-.068-2.28.023-2.094.082-4.186.111-6.279.012-.881-.02-1.762-.02-2.642,0-.252.039-.5.066-.826.652.047,1.241.088,1.83.131a2.349,2.349,0,0,0,.4.04c1.459-.146,2.925-.007,4.377-.09,1.8-.1,3.584-.083,5.377-.016.861.032,1.729-.075,2.589-.027,1.983.112,3.964.268,5.944.434.836.07,1.664.238,2.5.3.927.074,1.859.065,2.787.124a13.862,13.862,0,0,1,1.979.218,27.764,27.764,0,0,0,5.537.546c.969.007,1.937.172,2.906.264a1.112,1.112,0,0,0,.329.01,12.042,12.042,0,0,1,2.245.041c.886-.02,1.771-.079,2.658-.092,1.216-.018,2.433-.025,3.649,0,.66.011,1.32.088,1.98.133a.783.783,0,0,0,.2-.018c.936-.173,1.866-.39,2.807-.507a16.079,16.079,0,0,1,1.944-.014C2158.154,340.547,2158.154,341.64,2158.154,342.732Zm.121-5.1a5.718,5.718,0,0,1-.084.6c-.452.032-.887.055-1.32.094-.884.08-1.764.208-2.649.245-1.1.047-2.21.018-3.315.03-1.528.016-3.056.024-4.583.071-.539.016-1.07-.057-1.615-.031a24.1,24.1,0,0,1-3.575-.118c-1.1-.111-2.2-.052-3.294-.1-1.029-.044-2.049-.3-3.077-.418-.943-.112-1.892-.174-2.839-.257a23.069,23.069,0,0,1-2.968-.219,16.08,16.08,0,0,0-2.444-.2c-.661-.04-1.323-.057-1.984-.089a28.026,28.026,0,0,1-3.042-.183,14.164,14.164,0,0,0-3.168-.017c-.372.023-.749-.082-1.124-.079-.706.006-1.413.089-2.117.067-1.229-.038-2.457-.135-3.686-.2-.376-.021-.754-.05-1.129-.034a12.588,12.588,0,0,1-4.184-.2.248.248,0,0,1-.069-.126c-.052-2.234-.1-4.469-.149-6.7-.015-.619-.058-1.236-.082-1.854a5.445,5.445,0,0,1-.013-1.127,6.668,6.668,0,0,0,.068-1.62c-.034-.515.031-.58.525-.719a2.94,2.94,0,0,1,.773-.136c2.947-.008,5.9,0,8.844,0,4.276-.005,8.552-.025,12.828-.023q7.544,0,15.086.035c1.818.006,3.635.05,5.452.044,2.5-.007,5.007-.046,7.51-.069.485,0,.97,0,1.42,0a6.9,6.9,0,0,0-.1.8,13,13,0,0,1-.025,2.471c-.056.3.146.638.161.963.06,1.278.136,2.558.126,3.837C2158.417,334.123,2158.334,335.88,2158.275,337.637Zm86.38-4.275c-.006.946,0,1.894-.043,2.838-.042.874-.144,1.744-.225,2.672-.724,0-1.4-.017-2.083,0-1.37.041-2.739.106-4.109.152-.553.018-1.109.045-1.66.008a20.348,20.348,0,0,0-5.079.26,9.281,9.281,0,0,1-1.708-.071c-1.217-.011-2.434-.023-3.65.014a12.86,12.86,0,0,1-2.781.006,5.559,5.559,0,0,0-.931-.035c-1.482-.021-2.965-.051-4.448-.055-2.236-.005-4.474.06-6.708,0a23.741,23.741,0,0,1-4.368-.12,9.177,9.177,0,0,0-2.116,0c-1.393.038-2.786.1-4.18.126-1.458.029-2.917.037-4.376.042a5.507,5.507,0,0,1-.792-.1,4.079,4.079,0,0,0-1.575-.022,4.646,4.646,0,0,1-1.317-.032c-2.187-.135-4.373-.289-6.561-.4-1.412-.075-2.827-.085-4.24-.144a6.928,6.928,0,0,1-1.117-.157,18.615,18.615,0,0,0-3.042-.021c-.835-.036-1.679.112-2.51.047-2.013-.156-4.025-.042-6.036-.061-1.083-.01-2.166-.1-3.25-.109-.773-.006-1.545.076-2.318.1-.521.014-1.042-.022-1.563-.016a9.264,9.264,0,0,0-.978.074,3.466,3.466,0,0,1-1.786-.065,15.678,15.678,0,0,1,.01-1.669,27.567,27.567,0,0,0,.078-4.2,18.772,18.772,0,0,1,0-2.631c.114-1.192.169-2.385.188-3.58a9.709,9.709,0,0,0,.143-1.319c-.02-.181.26-.4.379-.57h84.56c.078,1.139.195,2.169.209,3.2C2244.7,329.468,2244.667,331.415,2244.655,333.361Zm3.806-7.785c0,.948,0,1.9-.015,2.844,0,.309-.046.617-.064.925-.08,1.325-.169,2.649-.229,3.975-.025.545.035,1.093.025,1.64-.016.879-.067,1.756-.086,2.635-.036,1.639-.031,3.279-.1,4.915-.059,1.421-.226,2.836-.288,4.257-.075,1.708-.151,3.422-.108,5.129.031,1.261,0,2.514-.022,3.773-.032,1.563.09,3.129.117,4.694.019,1.09-.016,2.181-.015,3.272,0,.427.043.854.048,1.282.01,1.022.02,2.044.008,3.065-.011.943-.124,1.892-.053,2.827a21.02,21.02,0,0,1,.037,2.115c-.021.85-.011,1.7.024,2.551.037.9.117,1.8.179,2.7.058.851.156,1.7.167,2.552.014,1.111-.04,2.223-.065,3.335,0,.095-.021.191-.015.285.107,1.681.237,3.36.318,5.043.047.991.016,1.986.023,2.979.006.825.015,1.649.022,2.474a1.386,1.386,0,0,1-.008.285,14.916,14.916,0,0,0,.029,3.625c.037.971.038,1.944.04,2.917,0,1.207,0,2.415-.019,3.623-.008.448-.08.9-.117,1.343-.017.213-.027.427-.03.641-.006.518-.007,1.036-.009,1.554a1.606,1.606,0,0,0,0,.426,7.429,7.429,0,0,1,.05,2.539c-.049.852-.067,1.705-.144,2.554a11.354,11.354,0,0,1-.278,1.632c-.092.387-.431.45-.644.134a1.452,1.452,0,0,1-.341-1.038,4.521,4.521,0,0,0-.152-1.177c-.022-.14-.088-.273-.1-.412-.1-1.133-.128-2.276-.3-3.4a25.375,25.375,0,0,1,0-3.256c-.03-1.33-.066-2.66-.145-3.987a19.113,19.113,0,0,0-.287-2.4,23.23,23.23,0,0,1-.107-3.062c-.024-.427-.042-.855-.059-1.283a2.224,2.224,0,0,1-.006-.638,8.067,8.067,0,0,0,.053-2.343c-.02-.807-.131-1.612-.145-2.419q-.053-3.055-.05-6.11c0-1.444.052-2.888.079-4.333.018-.924.024-1.849.05-2.774.018-.639.031-1.28.1-1.914a23.336,23.336,0,0,0,.2-3.589c-.06-1.279.055-2.567.036-3.85-.015-1.044-.127-2.086-.171-3.129-.021-.493.041-.989.027-1.483-.036-1.33-.073-2.661-.145-3.989-.094-1.709-.24-3.415-.331-5.123-.07-1.327-.091-2.657-.129-3.986-.04-1.4-.1-2.8-.1-4.2,0-1.159.073-2.318.1-3.477.024-1.114.018-2.23.043-3.343.026-1.137.073-2.274.114-3.411.007-.189.044-.378.043-.567,0-.877-.052-1.756-.02-2.632.047-1.278.173-2.553.218-3.831.027-.758-.047-1.518-.059-2.278s0-1.51,0-2.343h2.8C2248.461,324.781,2248.462,325.179,2248.461,325.576Zm1.2-2.494a1.647,1.647,0,0,1-.4.1,33.561,33.561,0,0,0-4.294.069c-.39.039-.792-.091-1.189-.092-3.325-.008-6.65,0-9.975,0q-3.761,0-7.523-.005-5.288,0-10.576,0l-13.7,0q-6.316,0-12.632,0-6.884,0-13.769,0c-2.594,0-5.187-.036-7.78-.03-2.66.007-5.321.067-7.981.068-3.548,0-7.1-.046-10.645-.051-3.7,0-7.406.023-11.109.026-2.861,0-5.723-.01-8.583-.015q-4.924-.01-9.848-.018c-4.346,0-8.691.013-13.037.009a3.444,3.444,0,0,1-1.6-.347,5.6,5.6,0,0,0-1.454-.287v-2.083a3.865,3.865,0,0,1,.637-.1c4.589.029,9.178.075,13.767.1,4.322.02,8.645.016,12.968.02q4.917,0,9.834,0c4.544,0,9.089.019,13.634.018,2.063,0,4.125-.044,6.188-.041,2.948,0,5.9.042,8.846.049,1.641,0,3.282-.031,4.922-.033,1.372,0,2.744.029,4.117.027,3.255-.005,6.511-.032,9.766-.029,1.859,0,3.718.048,5.577.065q2.357.022,4.714.023,2.917.006,5.833,0h4.5q2.624,0,5.248,0c2.052,0,4.1.01,6.158.011,1.813,0,3.625.007,5.438-.008,1.327-.011,2.653-.069,3.979-.072.907,0,1.815.084,2.722.083,3.116,0,6.232-.025,9.348-.041,2.212-.01,4.425-.026,6.638-.028.419,0,.838.051,1.265.079Z" transform="translate(-1.048)" fill="#0c3117"/>
  </g>
</svg>
