<svg xmlns="http://www.w3.org/2000/svg" width="150" height="100" viewBox="0 0 150 100">
  <path id="パス_13" data-name="パス 13" d="M2080.845,538.77c-.5-.467.073-1.766.105-2.331a9.49,9.49,0,0,0-.279-2.427c-.154-.758.116-1.667-1.267-2.2l-.141-.054a5.851,5.851,0,0,0-1.127-.35,103.4,103.4,0,0,0-11.34-1.074q-1.228-.071-2.457-.147-3.863-.243-7.723-.495c-5.035-.325-10.241-.661-15.369-.96-7.353-.428-14.578-.789-21.292-1.116-4.081-.2-8.129-.353-12.863-.519a81.361,81.361,0,0,0-8.877,1.133c-.313.108-.62.22-.914.343a11.3,11.3,0,0,1-2.172,1.658,13.294,13.294,0,0,1-5.27,1.89c-4.566.57-9.263-.24-13.879.085a1.282,1.282,0,0,0-.875.473,8.5,8.5,0,0,0-.394,2.277c-.025.691.536.969,2.143,1.064,2.5.147,5.158.3,7.769.408,1.151.048,1.523.244,1.474.779-.291,3.17.061,6.269-1.244,9.41a21.629,21.629,0,0,1-5.8,8.034c-3.067,2.705-7.4,4.83-12.193,6.87-.944.4-4.989,1.64-4.616,2.336l.007.012a1.728,1.728,0,0,1-.228.034c-.85.069-1.908.443-2.717.6l-4.11.786c-3.334.738-6.882,1.121-9.811,2.195-.669.246-1.361.5-2.089.719-3.836,1.154-3.97,4.335-1.872,6.074.031.026.081.071.037.123-.567.664.579,1.067,1.671,1.357,1.963.521,2.105.414,1.548,1.559-.387.8-.753,1.547-1.042,2.321-4.044,10.858-4.529,22.025-9.121,32.8-.389.912-.887,1.828-1.369,2.715-.27.5-.539.992-.792,1.489-.679,1.336-1.616,2.5-1.355,3.849,1.127.2,2.2.477,3.256.751.034.009.061.019.094.028,3.5.092,4.446-.215,5.336-1.678a9.459,9.459,0,0,0,.777-1.758c1.739-4.821,4.668-9.559,6.433-14.392q1.553-4.252,2.685-8.536c.662-2.5,1.7-5.143,1.7-7.669.327-1.373.665-2.792,1.115-4.181.211-.65,5.013-1.242,6.1-1.425,3.376-.567,6.917-.843,10.445-1.093a28.012,28.012,0,0,1,3.789.084c.589.039,1.2.079,1.809.1l.2.008-.016.1c-.027.175-.061.351-.095.525-.785,4.052-.031,8.174.966,12.2.588,2.377,1.332,4.789,2.051,7.121q.339,1.095.671,2.19c.228.755.526,1.521.814,2.261l.158.408c.4,1.028,1.115,1.309,3.495,1.366l.31.008c.347.01.7.019,1.047.012,1.975-.047,2.364-.223,2.314-1.045a28.747,28.747,0,0,0-.563-3.974c-.186-.928-.411-1.87-.626-2.782a68.216,68.216,0,0,1-1.5-13.967c-.024-.835.023-1.676.073-2.567.022-.4.045-.821.063-1.257l.006-.128.26.036c.563.079,1.094.151,1.6.221,9.583,1.31,20.61,2.644,27.3,6.4,2.09,1.172,4.485,2.376,7.118,3.577s3.013,2.6,3.21,4.064c.731,5.394,1.82,10.774,2.913,16.153,1.006,4.949.661,10.314,4.224,15.026a2.23,2.23,0,0,0,1.142.391,9.768,9.768,0,0,0,4.219-.5c.96-.393,1.478-.96,1.458-1.6a5.449,5.449,0,0,0-.53-2.471c-1.936-3.616-1.039-7.7-1.167-11.405-.171-4.9-.4-9.8-.707-14.7l-.008-.134a23.241,23.241,0,0,1-.032-3.8,2.044,2.044,0,0,1,1.256-1.372,5.5,5.5,0,0,0,2.426-2.234,7.057,7.057,0,0,1,1.137-1.4c.254-.23.5-.461.755-.693a21.132,21.132,0,0,1,3.751-2.96,11.5,11.5,0,0,1,6.482-1.209c.45.034.9.061,1.356.089.956.058,1.946.118,2.89.237a2.458,2.458,0,0,1,1.431.689,2.191,2.191,0,0,1,.523,1.3c.09,2.421,1.3,4.813,2.461,7.125,1.294,2.568,1.6,5.282,2.633,7.894,1.752,4.435,4.531,8.648,7.462,12.928a10.923,10.923,0,0,0,1.7,1.716,16.955,16.955,0,0,1,1.322,1.251c.652.719,1.7.61,2.919.483l.4-.041c.663-.063,2.179-.29,1.952-1.017a12.422,12.422,0,0,0-1.374-2.882,14.839,14.839,0,0,0-1.063-1.41,8.282,8.282,0,0,1-1.5-2.281c-.306-.889-.6-1.778-.886-2.667-2.833-8.69-5.815-17.322-6.727-26.109l-.151-1.432c-.027-.257.308-.517.6-.747l.157-.123a9.148,9.148,0,0,1,.806-.556,3.259,3.259,0,0,0,1.195-1.012,48.249,48.249,0,0,0,2.089-5.718c.258-.829-1.275-1.65-3.349-1.794-.675-.047-1.33-.121-2.089-.207-.364-.042-.751-.086-1.172-.13l-.26-.028.8-.74c1.6-1.477,3.654-2.729,5.1-4.249a24.1,24.1,0,0,0,3.879-5.293,16.159,16.159,0,0,0,1.987-8.683c-.17-2.585-.193-5.152-2.176-7.615-.534-.662.293-.885,1.264-1.072l.642-.123c1.243-.238,2.527-.485,3.723-.775a5.826,5.826,0,0,0,.567-.167c.459.04,1-.077,1.007-.363,0-.07,0-.14,0-.21.012-.012.029-.023.042-.035A.588.588,0,0,1,2080.845,538.77Zm-102.235-5.583a9.719,9.719,0,0,1-.194,1.593c-.037.214-.077.439-.115.681l-.03.183-.3-.114c-.292-.11-.579-.2-.831-.279-.515-.161-.886-.277-.935-.442a3.421,3.421,0,0,1,.022-1.691c.015-.067.115-.136.3-.2a2.457,2.457,0,0,1,.868-.154c.413.026,1.222.236,1.222.428Zm18.309-3.259a12.107,12.107,0,0,1,1.811-.934c-.135.791-.476,1.571-2.5,2.1l-.536.14Zm-15.591,5.74a3.612,3.612,0,0,1-1.588-.3.5.5,0,0,1-.22-.659,6.7,6.7,0,0,0,.247-1.313c.026-.214.053-.435.09-.665l.015-.1,2.169.086c1.573.062,3.269.128,4.961.2a32.752,32.752,0,0,0,8.7-.76c3.123-.718,4.716-1.853,4.731-3.373,0-.236.548-.569,1-.615.38-.038.763-.08,1.146-.121a35.832,35.832,0,0,1,4.584-.3c4.513.093,9.427.27,15.466.557,3.494.166,7.036.379,10.46.586q2.449.148,4.9.291,1.679.1,3.359.187c1.94.106,3.948.216,5.918.341q4.562.288,9.117.6,3.412.226,6.824.449,2.368.153,4.74.3c2.5.155,5.089.316,7.63.491a2.867,2.867,0,0,1,1.547.253l.073.016c.253.056.517.116.8.17l.39.075-.433.117c-.242.065-.449.122-.63.174a.782.782,0,0,1-.17.161l-.976.691,0,0a4.354,4.354,0,0,0-.055.592c-.076,1.749-3.179,2.8-6.2,2.933-.349.016-.705.046-1.048.075-.3.026-.6.051-.9.068-.509.029-1.019.066-1.529.1a37.238,37.238,0,0,1-3.749.149c-2.419-.068-2.876-.006-3.837.982l-.068.069-.157-.014q-.7-.062-1.414-.13c-1.028-.1-2.089-.2-3.147-.267l-1.435-.1c-5.028-.339-10.228-.691-15.353-.994-3.059-.181-6.25-.32-9.756-.424-4.235-.126-8.434-.2-12.374-.261q-1.193-.019-2.387-.042c-2.978-.054-6.059-.111-9.073-.068C1996.579,535.978,1989,536.045,1981.328,535.667Zm83.4,6.917a9.328,9.328,0,0,0-.289,1.079c-.069.3-.139.617-.238.924a6.035,6.035,0,0,0-.213,1.647,6.245,6.245,0,0,1-.215,1.67,35.534,35.534,0,0,0-1.116,5.616l-.14.969c-.105.714-.153,1.443-.2,2.149a20.229,20.229,0,0,1-.334,2.893,36.9,36.9,0,0,1-1.707,5.408,5.776,5.776,0,0,1-3,2.9l-.139.072-1.938-.837-3.654-.146.035-.1c.165-.477.335-.941.5-1.4.366-1,.712-1.947.963-2.906.222-.848.386-1.716.545-2.554.176-.927.358-1.886.617-2.825a16.457,16.457,0,0,1,.74-1.977,12.766,12.766,0,0,0,.853-2.466c.514-2.663.92-5.375,1.315-8,.162-1.085.325-2.17.5-3.254l.407-2.581,1.019.05-.016.094c-.016.1-.029.2-.043.305a5.365,5.365,0,0,1-.118.678,1,1,0,0,0,.539,1.251,6.181,6.181,0,0,0,2.713.469c.2,0,.4.014.6.025s.413.023.62.025a2.642,2.642,0,0,1,1.2.2A.451.451,0,0,1,2064.729,542.584Zm1.026.389.055-.38c.156-1.07.261-1.109,2.729-1.04l.146,0,.04.066c4.669,7.6-1.344,19.123-6.133,21.991l-.418.25.051-.317c.079-.5.151-.977.221-1.446.15-.992.292-1.928.469-2.866.2-1.077.423-2.154.643-3.231.3-1.486.616-3.023.879-4.536C2064.931,548.638,2065.35,545.758,2065.756,542.973ZM1976.1,561.241c.114-.056.229-.113.342-.17a5.265,5.265,0,0,0,.761-.368c.139-.086.272-.176.41-.263.176-.1.359-.195.532-.3a.445.445,0,0,0,.166-.151c1-.641,1.976-1.29,2.921-1.927q.675-.454,1.353-.908c.238-.158.5-.315.757-.466a5.624,5.624,0,0,0,1.48-1.086,35.239,35.239,0,0,0,3.532-5.2,16.6,16.6,0,0,0,1.424-4.586c.409-2.126.737-4.294,1.055-6.39.135-.895.271-1.791.413-2.687l.01-.069.142-.018a3.521,3.521,0,0,1,1.559.051.532.532,0,0,1,.411.556c-.013.212-.043.424-.073.635-.032.234-.067.475-.075.712-.025.689-.02,1.391-.016,2.07a23.788,23.788,0,0,1-.244,4.352,24.612,24.612,0,0,0-.25,4.557,18.222,18.222,0,0,1-.7,6.308,14.723,14.723,0,0,0-.61,4.368c-.025.66-.05,1.343-.118,2.012-.021.2-.054.391-.089.591l-.062.371-17.588-.7-.047-.031a17.154,17.154,0,0,0,2.566-1.247l.044-.021Zm16.23,1.923c.065-.414.127-.822.188-1.226.135-.9.263-1.741.426-2.6.124-.651.275-1.312.421-1.951a29.8,29.8,0,0,0,.644-3.42c.211-1.953.277-3.945.341-5.871.015-.451.029-.9.047-1.352.06-1.626.106-3.252.151-4.878.039-1.4.077-2.8.126-4.193a2.278,2.278,0,0,1,.164-.671c.035-.1.068-.194.095-.289l.024-.081,8.09-.142-.089.562c-.13.864-.267,1.728-.4,2.591-.316,2-.642,4.065-.889,6.1-.111.913-.146,1.845-.181,2.745-.036.94-.074,1.912-.2,2.865a4.814,4.814,0,0,1-.191.779,2.067,2.067,0,0,0,0,1.77,1.984,1.984,0,0,1-.1,1.663,4.74,4.74,0,0,0-.225.774c-.164,1-.318,2-.473,3l-.663,4.217-7.317-.292Zm12.8-23.294c1.146,0,2.3-.008,3.42-.019,1.378-.013,2.8-.026,4.2-.015.891.007,1.792.061,2.661.114.538.032,1.075.065,1.613.086q3,.121,5.995.233c3.895.149,7.92.3,11.875.487,2.028.095,4.079.234,6.061.369,1.493.1,3.038.207,4.561.291,3.175.177,6.348.308,9.3.423,1.453.056,1.4.5,1.353.852l-.009.073a.456.456,0,0,1-.329.38,1.994,1.994,0,0,1-.711.1c-.193,0-.4-.012-.6-.023l-3.6-.207c-5.9-.339-11.991-.69-17.991-1.016-1.811-.1-3.664-.165-5.455-.23q-1.138-.041-2.274-.084l-.009.067-.21-.006-3.679-.146c-5.294-.21-10.768-.427-16.148-.659a2.364,2.364,0,0,1-1.4-.454.278.278,0,0,1,.129-.411A2.7,2.7,0,0,1,2005.131,539.87Zm-1.005-1.165a8.6,8.6,0,0,1,.184-1.539c.032-.179.064-.356.092-.533l.011-.072.148-.016c6.442-.681,46.872.933,52.124,2.082l.129.028-.453,2.859-4.253-.27c-3.356-.213-6.638-.421-9.919-.635-.6-.039-1.209-.089-1.812-.139-.839-.069-1.7-.14-2.56-.181-5.2-.247-10.743-.507-16.315-.728-2.729-.108-5.515-.166-8.209-.222l-1.1-.023c-.975-.021-1.951-.032-2.927-.043-1.29-.015-2.623-.03-3.934-.068C2004.885,539.193,2004.126,538.906,2004.126,538.705Zm.549,2.816c4.22.083,7.67.181,10.855.308,2.11.084,4.25.193,6.319.3,1.729.088,3.514.179,5.273.255q4.72.2,9.445.393c4.012.164,8.16.333,12.238.516,1.549.069,3.069.186,4.678.31.745.058,1.5.116,2.277.171l.189.013-.715,4.512-.208-.009c-.876-.035-1.733-.068-2.574-.1-1.876-.072-3.649-.14-5.433-.223-1.89-.089-3.809-.191-5.666-.29q-1.79-.1-3.58-.188-2.281-.116-4.565-.221c-3.153-.149-6.414-.3-9.609-.5-2.268-.141-4.561-.33-6.778-.512-1.739-.143-3.538-.291-5.31-.415-1.209-.084-2.451-.138-3.652-.189-1.1-.047-2.234-.1-3.345-.169-.512-.033-1.21-.367-1.227-.585a12.992,12.992,0,0,1,.1-2.842C2003.42,541.833,2004.2,541.517,2004.675,541.521Zm-.237,4.563q2.6.152,5.2.3c3.432.2,6.979.4,10.465.618,1.613.1,3.247.222,4.828.34,2.235.166,4.544.337,6.826.453,3.723.189,7.521.331,11.195.47q2.4.09,4.8.184l7.293.291-.194,1.229a.181.181,0,0,1-.009.058l-.042.266-.251-.018a1.527,1.527,0,0,1-1.157,0c-.572-.262-4.1-.1-4.944-.126-1.755-.061-3.491-.181-5.24-.269-3.142-.158-6.236-.329-9.354-.57-3.837-.3-7.716-.407-11.554-.7-2.464-.186-5.348-.141-7.8-.47-1.583-.048-3.175-.1-4.761-.151q-3.045-.187-6.084-.4a1.875,1.875,0,0,0-.3.007c-.548-.163-.486-.456-.435-.685a.612.612,0,0,0,.025-.268c-.042-.187.045-.333.26-.432A2.78,2.78,0,0,1,2004.439,546.084Zm47.787,9.255q-.146,0-.312-.007c-6.131-.281-12.663-.574-19.21-.779-6.624-.208-12.516-.549-17.949-1.038a.366.366,0,0,0-.074-.09c-1.356-.011-2.719-.088-4.057-.216-1.588-.042-3.166-.124-4.7-.3a16.152,16.152,0,0,0-2.172-.081,1.047,1.047,0,0,1-.787-.264c-.215-.119-.259-.262-.172-.385-.009-.028-.032-.051-.035-.081a8.387,8.387,0,0,1,.28-2.579c.08-.381.163-.772.228-1.177q12.7.9,25.516,1.33c8.592.279,17.02,1.176,25.6,1.412-.044.289-.088.579-.129.855-.133.9-.257,1.754-.447,2.6C2053.732,554.843,2053.62,555.339,2052.226,555.339Zm.418.486-.266,1.683h-.192l-.392,0-.272,0c-.132,0-.257,0-.383-.01q-2.345-.144-4.689-.291-3.8-.238-7.593-.466-3.229-.191-6.465-.365-2.631-.145-5.259-.3c-7.385-.427-15.335-.889-23.423-1.376-.385-.023-1.281-.2-1.319-.4a1,1,0,0,1,.41-.955.383.383,0,0,1,.1-.05c2.938.193,5.875.385,8.819.552l.875.074c3.135.269,6.376.548,9.583.709,4.6.231,9.29.395,13.826.553q3.16.111,6.319.228c2.273.087,4.546.178,6.841.271Zm-51.322,5.805,3.107.2c2.052.135,4.023.265,5.993.4q1.488.1,2.974.209c2,.144,4.069.293,6.109.395,3.922.2,7.914.377,11.775.552q5.011.228,10.021.466c2.124.1,4.275.24,6.357.372q1.441.092,2.885.18l.21.013-.737,2.285-.2-.012-48.839-2.9Zm48.844,2.47c-.49-.076-.914-.142-1.347-.172-4.337-.3-8.155-.547-11.672-.763-4.143-.255-7.771-.464-11.1-.639q-3.231-.17-6.466-.324c-3.117-.152-6.34-.309-9.506-.49-2.689-.154-5.42-.42-7.83-.655-.442-.043-.808-.456-.762-.662a1.179,1.179,0,0,1,.774-.624c16.344,1.135,32.7,2.242,49.206,2.718l-.279,1.763-.245-.034C2050.667,564.178,2050.411,564.138,2050.166,564.1Zm.363-2.421a1.669,1.669,0,0,1-.263.021,1.2,1.2,0,0,1-.555.093l-.172-.008c-.021,0-.035-.006-.054-.008h0c-7.828-.5-15.768-.568-23.6-1.075-4.346-.282-8.731-.558-13.05-.917-3.34-.278-6.975-.254-10.2-.748-.047-.007-.075-.021-.115-.03l-.4-.028a1.345,1.345,0,0,1-.128-.052.469.469,0,0,1-.293-.507c.127-.828.237-1.689.326-2.562a.634.634,0,0,1,.47-.536,3.663,3.663,0,0,1,1.518-.094c1.555.13,2.936.228,4.219.3,1.354.076,2.711.144,4.067.212,1.807.091,3.673.184,5.506.295,1.976.119,3.979.251,5.919.38,2.643.175,5.376.356,8.07.5,4.688.257,9.492.49,14.136.715q3.038.147,6.112.3l.2.01-.6,3.777c-.012,0-.021,0-.033,0C2051.244,561.7,2050.887,561.689,2050.529,561.678Zm10.482-23.909.145-.121.192.105c1.332.735.827,1.411.382,2.007a1.461,1.461,0,0,0-.43.928l-.406.03-.068-.123C2060.326,539.7,2059.811,538.777,2061.011,537.769Zm-93.828,25.106c.444-.284.858-.584,1.188-.765.872-.482,1.741-.963,2.652-1.43,1.974-1.011,3.94-2.026,5.823-3.076a10.6,10.6,0,0,0,2.095-1.518,30.975,30.975,0,0,0,6.1-7.5c1.454-2.675,1.73-5.367,2.035-8.11.073-.656.146-1.311.224-1.966a4.665,4.665,0,0,0-.063-1.189c-.027-.193-.054-.388-.07-.587l-.007-.089.186-.012a6.494,6.494,0,0,1,2.475.091c.369.159.416.432.376.85a30.465,30.465,0,0,1-.651,4.387c-1.032,4.178-1.432,8.8-5.235,12.662-3.355,3.41-8.977,6.355-15.857,8.257-.881.244-1.784.467-2.7.677A4.9,4.9,0,0,0,1967.183,562.876Zm-22.948,5.74c.462-.2.859-.377,1.259-.55a27.463,27.463,0,0,1,6.408-1.487c1.427-.219,2.9-.445,4.227-.777,2.105-.529,4.46-.9,6.738-1.254q.861-.134,1.715-.271a60.247,60.247,0,0,1,12.747-.934c2.769.138,5.594.242,8.325.342q1.952.071,3.9.147,1.424.056,2.849.1c2.227.078,4.53.159,6.784.295,2.032.122,4.088.279,6.076.43,2.224.169,4.524.345,6.8.472,2.663.15,5.38.266,8.009.378,2.729.117,5.551.237,8.319.4,6.511.373,11.97.719,17.454,1.2.957.083,1.959.132,2.928.179a30.068,30.068,0,0,1,7.524,1l.186.059-.14.083c-.2.12-.4.238-.584.353-.406.248-.789.482-1.219.7-.338.172-.67.365-.99.551a11.531,11.531,0,0,1-2.077,1.021c-.256.21-.524.416-.822.615a4.017,4.017,0,0,1-2.53,1.51,3.565,3.565,0,0,1-1.052.3c-2.292.256-4.54.5-6.831.649-5.412.357-11.174.68-16.956.68q-1.121,0-2.24-.016l-.4-.006c-5.99-.091-12.185-.186-18.251-.446-4.3-.184-8.649-.5-12.853-.8q-2.155-.155-4.309-.3c-1.132-.077-2.276-.179-3.381-.277-1.069-.095-2.175-.193-3.267-.268-1.344-.093-2.721-.169-4.053-.242-2.37-.131-4.821-.266-7.187-.5-5.281-.533-10.613-1.154-15.768-1.754q-2.473-.288-4.948-.574c-.649-.074-1.264-.181-1.975-.305-.347-.06-.713-.124-1.111-.188l-.326-.053Zm7.28,14.782a1.217,1.217,0,0,1-.042.236c-.244.8-.5,1.6-.765,2.4-.556,1.707-1.132,3.472-1.537,5.217-.224.963-.406,1.944-.582,2.893-.562,3.035-1.146,6.173-3.163,9.182a12.041,12.041,0,0,0-1.443,3.478,20.281,20.281,0,0,1-.689,2.06c-.418,1-.924,2.014-1.413,2.991-.3.6-.6,1.2-.886,1.808-.445.948-.878,1.9-1.311,2.848-.447.981-.894,1.962-1.356,2.942-.451.957-1.161,1.321-2.882,1.321-.379,0-.808-.018-1.292-.051a2.632,2.632,0,0,1-1.172-.254.367.367,0,0,1-.167-.476c.125-.356.232-.714.341-1.072a14.964,14.964,0,0,1,.708-1.99c.315-.68.7-1.363,1.069-2.025s.76-1.354,1.074-2.036a3.586,3.586,0,0,0,.256-1.109,4.321,4.321,0,0,1,.192-.961c.21-.588.473-1.18.726-1.753.244-.551.5-1.121.7-1.685.245-.674.459-1.362.666-2.028a29.045,29.045,0,0,1,1.122-3.17,13.736,13.736,0,0,0,1.01-3.534q.041-.367.095-.733a20.534,20.534,0,0,0,.116-2.226,20.055,20.055,0,0,1,.714-4.542c.082-.349.166-.7.243-1.048.226-1.015.547-2.041.857-3.033.123-.395.247-.79.365-1.186q1.3-4.347,2.619-8.693a1.407,1.407,0,0,1,.275-.441c.041-.051.079-.1.11-.142l.053-.079,7.387.548-.046.1c-.07.154-.144.3-.215.43a2.516,2.516,0,0,0-.3.721c-.148.939-1.149,1.524-3.244,1.9a7.6,7.6,0,0,0-2.972,1.257,2.572,2.572,0,0,0-.8,1.042,4.089,4.089,0,0,1-.392.658c-.317.411.135.546.9.733.186.046.378.093.552.147a1.492,1.492,0,0,0,1.3-.144c.066-.03.133-.061.2-.091a15.2,15.2,0,0,1,1.629-.548c.24-.071.481-.142.714-.216l.141-.045.548.26Zm33.042,19.45c.2.9.4,1.793.578,2.689a.618.618,0,0,1-.437.692,3.309,3.309,0,0,1-1.042.139,7.218,7.218,0,0,1-1.259-.119c-.671-.123-1.44-.372-1.581-.7-.119-.278-.241-.556-.363-.834a25.094,25.094,0,0,1-1.251-3.244c-.794-2.833-1.7-6.127-2.359-9.367-.427-2.09-.727-4.218-1.015-6.276-.13-.92-.26-1.84-.4-2.76l-.015-.1.381-.013q.036-.219.074-.438c.07-.4.142-.818.179-1.227a.535.535,0,0,1,.39-.469,2.608,2.608,0,0,1,1.1-.08l.643.053c.975.081,1.982.165,2.975.207a2.969,2.969,0,0,1,1.281.24.5.5,0,0,1,.258.611,11.969,11.969,0,0,0-.367,3.022c.1,2.277.3,4.527.564,7.2l0,.037c.21,2.129.428,4.331.8,6.493C1983.929,600.023,1984.249,601.459,1984.557,602.848Zm37.265-11.283-2.339-1.219c-1.732-.9-3.522-1.832-5.263-2.759a42.749,42.749,0,0,0-12.465-4.178c-1.41-.261-2.719-.487-4-.69-1.127-.178-2.25-.363-3.373-.547-2.865-.471-5.828-.958-8.8-1.323-1.995-.245-4.095-.38-6.126-.511-1.307-.084-2.658-.171-3.974-.287a68.978,68.978,0,0,0-12.13.224c-.775.066-1.5.2-2.269.342a19.2,19.2,0,0,1-3.3.4q-.594.144-1.192.281a8.812,8.812,0,0,1-2.9.519l-.1.007a9.707,9.707,0,0,0-1.4.239c-.214.047-.429.095-.646.136l-3.71.708-.05-.114c-.406-.938.341-1.6,2.281-2.035.547-.121,1.119-.23,1.67-.335.725-.138,1.474-.281,2.166-.452a51.914,51.914,0,0,1,7.606-1.066c1.193-.108,2.427-.22,3.612-.366a12.585,12.585,0,0,1,2.2.009l.132.008c1.032.063,2.075.143,3.085.22q.88.067,1.759.131,2.111.151,4.224.3c2.937.2,5.971.413,8.947.649,3.172.252,6.372.57,9.466.877l.442.044c1.352.134,3.124.323,4.84.587.824.127,1.7.24,2.545.349a34.764,34.764,0,0,1,6.283,1.182c3.128,1.064,5.984,2.33,8.745,3.554,1.071.474,2.178.965,3.285,1.437.212.091.711.328.754.579.127.766.2,1.537.278,2.282.025.251.05.5.076.747l.03.273Zm-67.8-12.466.83-1.9,6.916.8-.23.254-.119.029Zm50.068,2.193.29-.4,17.638.7-.289,5.821-.736-.359c-4.959-2.421-9.642-4.707-16.7-5.737Zm30.776,39.918c.1.283.2.566.3.849a11.728,11.728,0,0,1,.677,3.026.946.946,0,0,1-.643.933,4.965,4.965,0,0,1-2.043.328h-.121c-1.705-.019-1.917-.6-2.085-1.06-.022-.062-.044-.123-.071-.182a20.206,20.206,0,0,1-1.081-3.159c-.086-.345-.184-.691-.282-1.038a13.156,13.156,0,0,1-.526-2.457,33.756,33.756,0,0,1-1.624-8.436.544.544,0,0,1-.115-.205l-.178-.673a.327.327,0,0,1,.061-.294,9.291,9.291,0,0,1-.336-1.305,12.454,12.454,0,0,1-.1-2.392,12.671,12.671,0,0,0-.09-2.342c-.229-1.4-.6-2.819-.959-4.193-.2-.768-.408-1.563-.589-2.345-.616-2.667-1.207-5.345-1.755-7.963a8.56,8.56,0,0,1-.131-1.9c.023-1.132.067-2.249.114-3.432l.061-1.551,10.865.129-.1.643c-.063.377-.122.741-.17,1.1-.1.735-.251,1.479-.4,2.2a12.24,12.24,0,0,0-.274,5.58,4.553,4.553,0,0,1,.08,1.342,7.41,7.41,0,0,0,0,.83c.054.706.125,1.412.194,2.118.119,1.21.243,2.461.281,3.692.059,1.887.066,3.8.073,5.659,0,1.271.01,2.542.03,3.814.017.989.066,1.995.114,2.967.031.632.062,1.265.085,1.9.011.342.041.685.069,1.028a8.79,8.79,0,0,1-.038,2.564A7.812,7.812,0,0,0,2034.862,621.209Zm18.626-39.036a29.749,29.749,0,0,0-6.509,0,12.3,12.3,0,0,0-7.876,4.229c-.31.317-.62.633-.945.941a12.259,12.259,0,0,0-1.67,2.091c-.223.326-.444.652-.687.974l-.057.077-.965-.075-.061-.332c-.035-.178-.068-.356-.09-.534-.193-1.586.993-2.977,2.3-4.244,2.532-2.449,6.5-3.975,12.119-4.665a17.456,17.456,0,0,1,2.2-.073c.573.006,1.163.011,1.712-.028a12.267,12.267,0,0,1,4.745.707c.254.076.507.152.76.224a10.344,10.344,0,0,1,2.627,1.243c.137.082.272.164.409.244a1.7,1.7,0,0,1,.6.63,2.805,2.805,0,0,0,.194.281l.228.279-1.651-.5A23.52,23.52,0,0,0,2053.488,582.173Zm-18.783,3.219.052-.326c.046-.289.095-.575.142-.86.124-.729.24-1.417.31-2.123.047-.466.472-.668,1.423-.678,1.074-.01,2.167-.035,3.13-.056l1.1-.024.44-.009Zm31.4,4.128a9.08,9.08,0,0,0,.647,1.805,8.491,8.491,0,0,1,.674,1.938,27.69,27.69,0,0,0,2.874,8.816,10.916,10.916,0,0,1,.967,2.982c.094.433.191.88.314,1.317.049.176.084.354.119.531a4.038,4.038,0,0,0,.263.93,25.042,25.042,0,0,0,4.344,6.2,1.107,1.107,0,0,1,.195,1.244c-.129.282-.981.521-1.517.594a1,1,0,0,1-.133.008,2.665,2.665,0,0,1-1.324-.421c-.15-.13-.3-.259-.458-.389a11.139,11.139,0,0,1-1.99-1.971c-2.328-3.41-4.391-6.571-6.306-9.666a9.752,9.752,0,0,1-1.842-5.785,4.064,4.064,0,0,0-.282-2c-.493-1.1-1.035-2.212-1.558-3.289-.736-1.514-1.5-3.079-2.136-4.628a8.858,8.858,0,0,1-.519-2.567c-.038-.383-.078-.778-.14-1.165l-.01-.068.635-.135.1.035c.238.085.473.172.708.259.562.209,1.144.424,1.755.6a3.279,3.279,0,0,0,1.2.11.658.658,0,0,0,.455-.467c.121-.682.044-1.393-1.331-1.965a10.913,10.913,0,0,1-1.608-.872,8,8,0,0,0-3-1.276,1.358,1.358,0,0,1-.713-.426,4.241,4.241,0,0,0-.362-.31l-.143-.107,8.583-1.277.192,1.558c.129,1.063.255,2.089.392,3.114.079.6.152,1.2.226,1.8C2065.572,586.2,2065.778,587.876,2066.106,589.52Zm3.828-18.661-.763,1.7c-.477,1.062-.926,2.064-1.38,3.065-.478,1.055-1.75,1.705-3.889,1.987-2.113.279-3.869.531-5.565.857a7.332,7.332,0,0,1-1,.11c-.361.076-.726.146-1.1.207a14.976,14.976,0,0,1-2.677.37c-.034.029-.073.053-.105.085l-.04.04-.091.012c-.885.118-1.767.245-2.648.372-1.979.285-4.026.579-6.1.763-3.189.283-6.407.443-9.562.478-1.384.015-2.809.023-4.3.023-3.2,0-6.7-.035-10.715-.107-5.369-.1-10.222-.242-14.835-.444-5.185-.228-10.866-.538-17.368-.946-1.7-.107-3.408-.262-5.063-.412-1.753-.158-3.565-.323-5.36-.429-6.1-.362-12.072-.749-17.967-1.509-1.626-.209-3.321-.362-4.96-.51-1.468-.132-2.986-.269-4.457-.447-1.805-.218-3.562-.561-5.261-.893l-.6-.118a2.151,2.151,0,0,1-1.148-.607c-1.433-1.652-1.721-3.224-.881-4.807l.053-.1.209.031c.35.053.694.107,1.035.162.74.118,1.44.23,2.165.312l2.226.254c3.754.428,7.637.87,11.477,1.258,5.046.509,9.992.966,14.7,1.357,3.532.293,7.143.546,10.633.791q1.791.126,3.583.253c.712.051,1.442.091,2.147.13.549.03,1.1.061,1.646.1q2.495.162,4.987.339c3.68.256,7.485.521,11.242.69,1.979.089,4.014.07,5.984.052,1.519-.014,3.09-.028,4.631.006,5.726.129,11.3.032,16.567-.288l2.059-.122c2.489-.146,5.063-.3,7.558-.514,1.133-.1,2.262-.254,3.354-.406a35.028,35.028,0,0,1,7.089-.479,2.04,2.04,0,0,0,.489-.031c.788-.159,1.572-.322,2.356-.485,1.418-.294,2.884-.6,4.351-.876s2.974-.533,4.572-.8c.757-.128,1.542-.261,2.368-.4Zm-4.631-2.1c1.151.177,2.238.345,3.314.555.724.141.9.323.926.451s-.093.326-.779.528l-.171.051a6.648,6.648,0,0,1-1.062.254c-1.983.266-3.878.65-5.661,1.059-.09.041-.172.086-.263.126a2.27,2.27,0,0,1-.8.17c-.092.041-.178.084-.272.125a2.563,2.563,0,0,1-1.157.177l-.82.2a17.443,17.443,0,0,1-2.562.351c-.393.035-.8.071-1.18.116l-.152.018-.367-.309.1-.052a27.4,27.4,0,0,1,3.694-1.4,1.446,1.446,0,0,1,.131-.064c1.081-.452,2.133-.919,3.111-1.418.417-.228.833-.457,1.254-.684a1.5,1.5,0,0,1,.352-.124,1.781,1.781,0,0,1,.414-.107l.015,0c.073-.065.152-.126.219-.193l.078-.08.177.028C2064.335,568.611,2064.821,568.686,2065.3,568.76Zm8.645-24.358c.864,2.147.548,4.323.243,6.427l-.068.468a33.161,33.161,0,0,1-2.793,8.3c-.235.54-.471,1.081-.7,1.621a2.568,2.568,0,0,1-.89.842l-.187.134c-.416.3-.858.6-1.285.892-.7.479-1.432.974-2.052,1.482-.8.655-1.558,1.336-2.291,1.994-.689.62-1.4,1.261-2.151,1.88a19.969,19.969,0,0,1-5.343,2.607c-.954.361-1.939.734-2.823,1.134a4.617,4.617,0,0,1-.988.255c-.151.028-.3.057-.448.089l-.125.028-.574-.245.1-.07c.089-.064.174-.13.259-.2a4.989,4.989,0,0,1,.62-.432c.746-.422,1.547-.838,2.322-1.241a30.851,30.851,0,0,0,4.583-2.711c.746-.586,1.557-1.17,2.342-1.735,2.25-1.622,4.577-3.3,5.668-5.213.249-.437.534-.877.81-1.3a13.369,13.369,0,0,0,1.365-2.461c.174-.468.405-.941.629-1.4.683-1.4,1.389-2.842.547-4.325-.046-.081.043-.154.114-.214a.356.356,0,0,0,.078-.077,6.148,6.148,0,0,1,.36-.544,2.13,2.13,0,0,0,.542-1.182,38.893,38.893,0,0,0-.715-5.181,6.161,6.161,0,0,0-.436-1.239,7.806,7.806,0,0,1-.389-1.033c-.042-.152.212-.29.457-.424a2.756,2.756,0,0,0,.263-.155l.123-.087.175.064c.114.042.249.081.383.119.335.1.68.2.775.348A18.029,18.029,0,0,1,2073.948,544.4Zm3.617-5.061c-3.224.541-6.57,1.01-9.808,1.463l-1.542.216c-.586.083-1.22.109-1.89.137-.331.014-.676.028-1.04.049l-.251.015.02-.119c.042-.258.071-.505.1-.745a7.5,7.5,0,0,1,.285-1.509c.267-.8,1.213-1.195,2.977-1.232a26.164,26.164,0,0,0,2.7-.245c.609-.077,1.24-.156,1.874-.205a8.494,8.494,0,0,0,4.766-1.479,6.74,6.74,0,0,0,1.188-1.451c.173-.26.353-.529.558-.788a1.51,1.51,0,0,1,.432-.305c.07-.039.14-.077.2-.117l.183-.117.159.124a2.061,2.061,0,0,0,.182.121c.17.1.345.213.348.338.012.391,0,.788-.015,1.172-.015.455-.031.926-.006,1.388a1.187,1.187,0,0,0,.1.4,18.333,18.333,0,0,1,.1,2.508A10.805,10.805,0,0,1,2077.566,539.341Z" transform="translate(-1930.958 -527.096)" fill="#0c3117"/>
</svg>
