<svg height="177.145" viewBox="0 0 125.386 177.145" width="125.386" xmlns="http://www.w3.org/2000/svg"><path d="m2056.25 547.775c-.417-.828.061-3.128.088-4.13a34.97 34.97 0 0 0 -.233-4.3c-.129-1.342.1-2.953-1.059-3.9l-.118-.1a3.468 3.468 0 0 0 -.942-.62 42.811 42.811 0 0 0 -9.479-1.9c-.685-.084-1.37-.168-2.054-.26q-3.229-.431-6.456-.876c-4.209-.576-8.561-1.172-12.847-1.7-6.146-.759-12.186-1.4-17.8-1.977-3.411-.352-6.795-.625-10.752-.919a34.9 34.9 0 0 0 -7.42 2.006c-.262.191-.518.39-.764.608a15.417 15.417 0 0 1 -1.816 2.937 8.843 8.843 0 0 1 -4.406 3.348c-3.816 1.009-7.743-.425-11.6.15a1.241 1.241 0 0 0 -.731.838 30.749 30.749 0 0 0 -.329 4.034c-.021 1.223.448 1.716 1.791 1.884 2.089.261 4.312.532 6.494.723.962.085 1.273.433 1.232 1.381-.243 5.616.051 11.106-1.04 16.669a50.81 50.81 0 0 1 -4.846 14.232c-2.563 4.792-6.19 8.557-10.192 12.17-.789.713-4.17 2.906-3.859 4.138l.006.021a.756.756 0 0 1 -.19.06 13.8 13.8 0 0 0 -2.271 1.059l-3.436 1.392c-2.787 1.307-5.753 1.986-8.2 3.888-.56.435-1.138.885-1.746 1.273-3.207 2.045-3.318 7.68-1.565 10.759a.246.246 0 0 1 .031.218c-.474 1.176.484 1.891 1.4 2.4 1.641.922 1.76.733 1.294 2.761-.324 1.41-.629 2.741-.87 4.111-3.381 19.234-3.786 39.016-7.624 58.1-.325 1.616-.742 3.239-1.145 4.809-.225.879-.451 1.758-.662 2.638-.567 2.367-1.351 4.437-1.133 6.818a21.63 21.63 0 0 1 2.722 1.331c.028.016.051.034.078.05 2.923.163 3.717-.38 4.46-2.972a28.877 28.877 0 0 0 .649-3.115c1.454-8.541 3.9-16.934 5.378-25.494q1.3-7.533 2.244-15.122c.553-4.437 1.423-9.11 1.423-13.585.273-2.432.556-4.946.932-7.407.176-1.152 4.19-2.2 5.1-2.524a46.472 46.472 0 0 1 8.731-1.937 11.12 11.12 0 0 1 3.167.149c.493.07 1 .141 1.512.184l.17.014-.013.17c-.023.311-.051.621-.079.93-.656 7.178-.026 14.481.808 21.62.491 4.211 1.113 8.483 1.714 12.614q.283 1.94.561 3.879c.191 1.338.44 2.694.68 4l.132.722c.331 1.82.932 2.318 2.921 2.419l.259.014a8.1 8.1 0 0 0 .875.021c1.651-.084 1.976-.4 1.935-1.851-.059-2.048-.208-4.285-.471-7.039-.156-1.643-.343-3.313-.523-4.927-.917-8.182-1.15-16.515-1.257-24.742-.02-1.48.019-2.969.061-4.547.019-.715.038-1.454.052-2.226v-.226l.217.064c.471.14.915.268 1.339.392 8.011 2.32 17.228 4.684 22.819 11.329a85.164 85.164 0 0 0 5.95 6.336c2.189 2.115 2.518 4.613 2.683 7.2.611 9.555 1.521 19.086 2.435 28.615.841 8.767.553 18.27 3.531 26.617a1.473 1.473 0 0 0 .954.693 4.308 4.308 0 0 0 3.527-.884 3.6 3.6 0 0 0 1.219-2.828 19.245 19.245 0 0 0 -.443-4.378c-1.618-6.406-.868-13.637-.976-20.2q-.214-13.026-.591-26.038l-.007-.237c-.066-2.208-.134-4.492-.027-6.731a3.939 3.939 0 0 1 1.05-2.431 9.15 9.15 0 0 0 2.028-3.957 15.226 15.226 0 0 1 .951-2.484c.212-.407.421-.818.631-1.228a29.86 29.86 0 0 1 3.136-5.243 5.675 5.675 0 0 1 5.418-2.142c.376.06.755.109 1.133.158a18.626 18.626 0 0 1 2.416.42 2.129 2.129 0 0 1 1.2 1.22 6.8 6.8 0 0 1 .437 2.3 59.566 59.566 0 0 0 2.057 12.622c1.082 4.549 1.339 9.357 2.2 13.983a183.691 183.691 0 0 0 6.238 22.9 19.844 19.844 0 0 0 1.418 3.04c.384.718.782 1.461 1.105 2.217.545 1.274 1.422 1.081 2.44.856l.338-.073c.554-.112 1.821-.513 1.632-1.8a36.9 36.9 0 0 0 -1.148-5.1c-.249-.838-.574-1.682-.888-2.5a20.811 20.811 0 0 1 -1.251-4.041c-.256-1.574-.5-3.149-.741-4.724-2.368-15.394-4.861-30.685-5.623-46.252l-.126-2.537a2.536 2.536 0 0 1 .5-1.323c.045-.074.089-.147.131-.219a11.142 11.142 0 0 1 .674-.984 5.01 5.01 0 0 0 1-1.793c.749-3.474 1.294-7.05 1.746-10.129a3.057 3.057 0 0 0 -2.8-3.178c-.564-.083-1.112-.215-1.746-.367-.3-.074-.628-.152-.979-.23l-.217-.049.671-1.311c1.34-2.616 3.054-4.835 4.262-7.527a56.478 56.478 0 0 0 4.9-24.758c-.142-4.579-.161-9.127-1.819-13.489-.447-1.172.245-1.567 1.056-1.9l.537-.219c1.039-.422 2.113-.859 3.112-1.374a3.345 3.345 0 0 0 .474-.3.674.674 0 0 0 .842-.642c0-.124 0-.248 0-.372.01-.021.025-.041.035-.061-.012-.022-.02-.05-.032-.075zm-85.459-9.89c0 .891-.077 1.786-.162 2.822-.031.379-.064.778-.1 1.207l-.025.324-.254-.2c-.244-.194-.484-.353-.695-.494-.431-.285-.741-.491-.782-.784a12.669 12.669 0 0 1 .019-3 .576.576 0 0 1 .248-.362 1.153 1.153 0 0 1 .725-.274c.345.046 1.021.418 1.021.757zm15.3-5.773a10.929 10.929 0 0 1 1.514-1.655 4.076 4.076 0 0 1 -2.086 3.72l-.448.248zm-13.033 10.168a1.791 1.791 0 0 1 -1.327-.531 1.47 1.47 0 0 1 -.184-1.168c.116-.746.16-1.514.206-2.326.022-.379.044-.77.075-1.178l.013-.174 1.813.152c1.315.109 2.732.227 4.147.354a13.634 13.634 0 0 0 7.27-1.346 6.351 6.351 0 0 0 3.955-5.975 1.341 1.341 0 0 1 .839-1.089c.318-.068.638-.141.958-.215a14.5 14.5 0 0 1 3.832-.533c3.772.165 7.88.478 12.928.986 2.92.294 5.881.671 8.744 1.037 1.365.174 2.73.349 4.1.516q1.4.171 2.808.331c1.622.188 3.3.383 4.947.6 2.542.34 5.081.7 7.621 1.055q2.852.4 5.7.795 1.98.272 3.963.528c2.092.275 4.253.56 6.378.869a1.366 1.366 0 0 1 1.293.448l.061.029c.211.1.432.2.671.3l.326.133-.362.208c-.2.116-.375.216-.527.309a1.334 1.334 0 0 1 -.142.286l-.816 1.223v.006c-.025.278-.037.616-.046 1.049a5.471 5.471 0 0 1 -5.185 5.2c-.292.028-.589.081-.876.132-.251.045-.5.09-.756.12-.425.051-.852.117-1.278.184a14.841 14.841 0 0 1 -3.134.263c-2.022-.12-2.4-.011-3.207 1.74l-.057.122-.131-.025c-.391-.073-.785-.151-1.182-.23-.859-.171-1.746-.347-2.631-.474l-1.2-.172c-4.2-.6-8.55-1.223-12.833-1.76-2.557-.321-5.225-.567-8.156-.752-3.54-.223-7.05-.35-10.344-.462-.665-.022-1.33-.048-2-.074-2.49-.1-5.065-.2-7.584-.121a138.938 138.938 0 0 1 -18.686-.37zm69.716 12.253c-.105.631-.175 1.281-.242 1.911-.057.537-.116 1.092-.2 1.637a22.108 22.108 0 0 0 -.178 2.917 22.959 22.959 0 0 1 -.18 2.958c-.484 3.288-.712 6.675-.933 9.949l-.117 1.716c-.088 1.265-.128 2.556-.168 3.806-.053 1.683-.107 3.424-.279 5.125-.307 3.049-.792 6.035-1.427 9.58a10.021 10.021 0 0 1 -2.505 5.132l-.116.128-1.62-1.483-3.054-.258.03-.183c.138-.846.28-1.667.419-2.476.306-1.773.6-3.45.805-5.148.185-1.5.323-3.039.456-4.525.147-1.643.3-3.341.516-5 .154-1.176.39-2.358.619-3.5a42 42 0 0 0 .713-4.368c.43-4.717.769-9.522 1.1-14.169q.2-2.883.414-5.765l.34-4.571.852.088-.013.167c-.013.18-.024.36-.036.54-.024.394-.049.8-.1 1.2a2.76 2.76 0 0 0 .451 2.217 2.967 2.967 0 0 0 2.268.831c.166.006.332.025.5.044a5.046 5.046 0 0 0 .518.043 1.265 1.265 0 0 1 1 .361 1.314 1.314 0 0 1 .171 1.096zm.858.689.046-.673c.13-1.9.219-1.964 2.282-1.842l.122.007.034.117c3.9 13.468-1.124 33.876-5.127 38.956l-.349.443.043-.562c.066-.88.126-1.731.185-2.561.125-1.757.244-3.416.392-5.078.17-1.909.353-3.816.537-5.723.253-2.633.515-5.356.735-8.036.415-5.013.768-10.115 1.104-15.049zm-74.94 32.362c.1-.1.192-.2.286-.3a4.467 4.467 0 0 0 .636-.651c.116-.152.228-.311.343-.465.147-.175.3-.345.445-.524a.738.738 0 0 0 .139-.268c.833-1.136 1.651-2.285 2.442-3.413q.565-.8 1.131-1.608c.2-.281.419-.558.633-.826a7.384 7.384 0 0 0 1.237-1.924 86.668 86.668 0 0 0 2.953-9.21 55.9 55.9 0 0 0 1.19-8.124c.342-3.766.616-7.606.882-11.32q.17-2.378.345-4.759l.008-.123.118-.031a1.463 1.463 0 0 1 1.3.09 1.137 1.137 0 0 1 .344.986c-.011.376-.036.751-.061 1.126-.027.414-.056.842-.063 1.261-.021 1.22-.017 2.463-.014 3.666.006 2.533.014 5.152-.2 7.71-.228 2.683-.219 5.423-.209 8.073a67.053 67.053 0 0 1 -.586 11.175 53.817 53.817 0 0 0 -.51 7.738c-.021 1.17-.042 2.379-.1 3.565-.017.347-.046.693-.074 1.048l-.052.658-14.7-1.243-.039-.055a14.59 14.59 0 0 0 2.145-2.208l.037-.038zm13.567 3.407q.082-1.1.157-2.173c.113-1.587.22-3.084.356-4.608.1-1.154.23-2.323.352-3.455.214-1.984.436-4.035.538-6.058.177-3.46.232-6.988.285-10.4q.019-1.2.039-2.4.076-4.321.126-8.642.049-3.714.105-7.427a8 8 0 0 1 .137-1.189c.029-.173.057-.344.079-.513l.02-.144 6.762-.252-.074.995q-.163 2.3-.336 4.59c-.264 3.54-.537 7.2-.743 10.8-.092 1.618-.122 3.268-.151 4.863-.03 1.665-.062 3.386-.164 5.076-.029.469-.1.932-.16 1.379a7.469 7.469 0 0 0 0 3.135 7.152 7.152 0 0 1 -.086 2.947c-.075.453-.154.922-.188 1.372q-.206 2.655-.4 5.311l-.554 7.471-6.116-.518zm10.7-41.265c.958.006 1.922-.014 2.859-.034 1.152-.023 2.342-.046 3.515-.027a20.323 20.323 0 0 1 2.225.2c.449.057.9.114 1.348.153q2.505.214 5.011.414c3.255.264 6.62.538 9.927.863 1.7.167 3.409.414 5.066.653 1.248.18 2.54.366 3.812.516 2.654.313 5.306.545 7.777.749 1.214.1 1.168.882 1.131 1.51l-.008.129a.779.779 0 0 1 -.869.849 4.209 4.209 0 0 1 -.5-.041l-3.013-.367c-4.928-.6-10.023-1.222-15.039-1.8-1.514-.174-3.062-.293-4.559-.407q-.951-.073-1.9-.15l-.008.118-.175-.011-3.075-.259c-4.425-.372-9-.757-13.5-1.168a1.519 1.519 0 0 1 -1.173-.8.806.806 0 0 1 .108-.728 1.286 1.286 0 0 1 1.041-.363zm-.84-2.064c0-.915.077-1.836.154-2.727.027-.316.054-.631.077-.945l.01-.127.124-.028c5.385-1.207 39.18 1.652 43.57 3.689l.108.05-.378 5.065-3.555-.478c-2.805-.378-5.549-.747-8.291-1.125-.506-.07-1.011-.158-1.514-.246-.7-.122-1.425-.248-2.139-.32-4.346-.438-8.98-.9-13.638-1.289-2.281-.191-4.61-.294-6.862-.394l-.921-.041c-.815-.037-1.631-.057-2.447-.077-1.078-.026-2.193-.054-3.288-.121-.374-.024-1.009-.532-1.009-.887zm.459 4.988c3.528.148 6.411.321 9.074.546 1.764.148 3.552.341 5.282.527 1.445.156 2.938.317 4.408.451q3.946.361 7.9.7c3.353.29 6.821.59 10.229.913 1.295.122 2.566.33 3.911.55.623.1 1.255.205 1.9.3l.158.023-.6 7.992-.174-.015c-.733-.062-1.448-.12-2.151-.176-1.568-.127-3.05-.247-4.542-.4-1.58-.158-3.184-.339-4.736-.514-1-.113-1.994-.226-2.992-.333-1.271-.137-2.543-.265-3.816-.392-2.636-.265-5.362-.538-8.033-.892-1.9-.25-3.812-.584-5.666-.906-1.454-.253-2.957-.515-4.439-.735-1.01-.149-2.049-.244-3.053-.336-.918-.083-1.867-.17-2.8-.3a1.448 1.448 0 0 1 -1.026-1.037 48.607 48.607 0 0 1 .082-5.034 1.355 1.355 0 0 1 1.085-.933zm-.2 8.083q2.173.27 4.348.533c2.869.349 5.834.709 8.748 1.1 1.348.179 2.714.394 4.036.6 1.868.294 3.8.6 5.706.8 3.113.335 6.287.587 9.358.832q2 .159 4.01.326l6.1.515-.163 2.177a.648.648 0 0 1 -.008.1l-.035.471-.21-.032a.681.681 0 0 1 -.967 0c-.478-.464-3.428-.172-4.133-.224-1.467-.108-2.918-.321-4.38-.476-2.627-.28-5.212-.583-7.819-1.009-3.208-.525-6.45-.721-9.658-1.235-2.06-.33-4.47-.25-6.521-.833-1.323-.085-2.654-.173-3.98-.268q-2.545-.331-5.086-.707a.747.747 0 0 0 -.253.012c-.458-.289-.406-.807-.363-1.213a2.254 2.254 0 0 0 .021-.475.893.893 0 0 1 .217-.766 1.218 1.218 0 0 1 1.035-.229zm39.945 16.394c-.081 0-.168 0-.26-.013-5.125-.5-10.585-1.016-16.058-1.381a123.67 123.67 0 0 1 -15-1.839.8.8 0 0 0 -.062-.159 18.662 18.662 0 0 1 -3.391-.383 22.475 22.475 0 0 1 -3.932-.525 6.445 6.445 0 0 0 -1.816-.144 1.032 1.032 0 0 1 -.8-1.149 1.341 1.341 0 0 1 -.03-.144 30.919 30.919 0 0 1 .234-4.568c.067-.674.136-1.367.19-2.085 7.078 1.059 14.188 1.864 21.329 2.356 7.182.493 14.227 2.084 21.4 2.5-.037.513-.074 1.025-.108 1.515-.111 1.6-.215 3.107-.374 4.6-.059.541-.153 1.418-1.319 1.418zm.349.861-.223 2.982h-.161-.328c-.08 0-.155 0-.228 0a2.447 2.447 0 0 1 -.32-.018q-1.96-.254-3.92-.516c-2.115-.281-4.23-.56-6.347-.826-1.8-.226-3.6-.437-5.4-.647-1.466-.172-2.931-.343-4.4-.523-6.174-.756-12.819-1.575-19.58-2.438-.322-.041-1.07-.354-1.1-.715a2.935 2.935 0 0 1 .343-1.692.326.326 0 0 1 .088-.089c2.456.341 4.911.682 7.372.978l.731.131c2.621.477 5.33.971 8.011 1.257 3.844.409 7.765.7 11.557.98 1.761.131 3.521.261 5.282.4 1.9.154 3.8.316 5.719.48zm-42.9 10.284 2.6.363c1.715.239 3.363.469 5.009.7.829.118 1.658.244 2.486.37 1.672.255 3.4.519 5.107.7 3.279.346 6.616.667 9.843.978 2.792.269 5.586.538 8.377.825 1.776.183 3.574.425 5.314.658q1.2.162 2.412.319l.176.022-.616 4.048-.167-.021-40.823-5.134zm40.829 4.375a6.776 6.776 0 0 0 -1.126-.3c-3.626-.527-6.817-.969-9.757-1.352-3.463-.452-6.5-.822-9.275-1.132-1.8-.2-3.6-.387-5.405-.574-2.605-.27-5.3-.548-7.946-.868-2.248-.272-4.531-.744-6.545-1.161-.369-.077-.675-.808-.637-1.173a1.729 1.729 0 0 1 .647-1.106c13.662 2.01 27.338 3.972 41.131 4.815l-.233 3.122-.2-.06c-.231-.073-.446-.144-.655-.213zm.3-4.289a.684.684 0 0 1 -.22.036.565.565 0 0 1 -.464.164l-.143-.014a.468.468 0 0 1 -.046-.014c-6.543-.888-13.181-1.006-19.729-1.9-3.633-.5-7.3-.988-10.908-1.625-2.792-.492-5.83-.45-8.526-1.325a.647.647 0 0 1 -.1-.054l-.338-.05a.99.99 0 0 1 -.107-.092 1.176 1.176 0 0 1 -.245-.9c.106-1.466.2-2.993.272-4.539a1.221 1.221 0 0 1 .393-.95 1.539 1.539 0 0 1 1.269-.166c1.3.231 2.454.4 3.526.531 1.132.134 2.266.254 3.4.375 1.51.161 3.071.327 4.6.522 1.651.21 3.326.445 4.948.673 2.209.31 4.494.631 6.746.892 3.919.455 7.934.868 11.816 1.267q2.54.261 5.109.529l.166.017-.5 6.691c-.011 0-.017-.007-.028-.008-.286-.018-.585-.042-.883-.062zm8.769-42.358.121-.215.161.187c1.113 1.3.691 2.5.319 3.556a4.334 4.334 0 0 0 -.36 1.645l-.339.054-.057-.218c-.415-1.582-.848-3.22.155-5.009zm-78.432 44.475c.371-.5.717-1.034.993-1.356.729-.855 1.456-1.706 2.217-2.532 1.65-1.791 3.294-3.588 4.868-5.449a13.659 13.659 0 0 0 1.751-2.689 66.6 66.6 0 0 0 5.1-13.281 72.278 72.278 0 0 0 1.7-14.367q.092-1.742.188-3.484a17.388 17.388 0 0 0 -.053-2.106c-.023-.341-.045-.688-.059-1.04l-.006-.157.156-.021c1.1-.144 1.72-.159 2.068.161.308.282.348.766.314 1.505-.118 2.541-.24 5.169-.544 7.772-.862 7.4-1.2 15.581-4.376 22.43a33.4 33.4 0 0 1 -13.255 14.626c-.737.432-1.491.827-2.259 1.2a4.065 4.065 0 0 0 1.198-1.209zm-19.183 10.168c.386-.359.718-.668 1.052-.974a13.987 13.987 0 0 1 5.356-2.634 21.944 21.944 0 0 0 3.534-1.377 36.406 36.406 0 0 1 5.632-2.222q.719-.238 1.434-.48a24.693 24.693 0 0 1 10.655-1.655c2.314.245 4.676.428 6.959.605 1.088.084 2.175.168 3.262.26.793.066 1.588.125 2.382.184 1.862.139 3.787.282 5.67.523 1.7.217 3.417.494 5.079.762 1.859.3 3.782.611 5.68.837 2.226.265 4.5.471 6.695.669 2.281.207 4.64.421 6.954.7 5.443.661 10.006 1.274 14.589 2.118.8.147 1.638.234 2.448.318a13.1 13.1 0 0 1 6.29 1.768l.155.1-.117.146c-.17.213-.331.421-.489.624-.339.439-.66.853-1.019 1.242-.283.305-.56.647-.828.976a9.928 9.928 0 0 1 -1.736 1.809c-.214.372-.438.737-.687 1.09a4.285 4.285 0 0 1 -2.115 2.674 2.007 2.007 0 0 1 -.88.529c-1.916.454-3.795.883-5.709 1.15a102.818 102.818 0 0 1 -14.174 1.2q-.937 0-1.872-.029l-.334-.011c-5.007-.161-10.185-.329-15.256-.789-3.6-.327-7.23-.878-10.744-1.411-1.2-.183-2.4-.365-3.6-.538-.946-.137-1.9-.316-2.826-.49-.894-.167-1.818-.341-2.731-.476-1.124-.165-2.275-.3-3.388-.429-1.981-.232-4.03-.471-6.008-.893-4.415-.944-8.871-2.044-13.18-3.108q-2.068-.511-4.136-1.017a15.023 15.023 0 0 1 -1.651-.54c-.29-.106-.6-.219-.929-.334l-.272-.093zm6.085 26.186c-.008.14-.015.279-.036.418-.2 1.416-.422 2.832-.64 4.248-.465 3.024-.946 6.151-1.285 9.241-.187 1.705-.339 3.443-.486 5.124-.47 5.376-.957 10.935-2.644 16.266a37.542 37.542 0 0 0 -1.206 6.161c-.168 1.2-.339 2.443-.576 3.65-.35 1.776-.773 3.567-1.181 5.3-.252 1.067-.5 2.134-.741 3.2q-.558 2.52-1.1 5.045c-.374 1.738-.747 3.476-1.133 5.211-.377 1.695-.971 2.34-2.41 2.34a7.731 7.731 0 0 1 -1.079-.09 1.367 1.367 0 0 1 -.979-.451 1.076 1.076 0 0 1 -.139-.843c.1-.631.194-1.265.285-1.9.166-1.16.336-2.36.591-3.526.264-1.2.584-2.415.893-3.588s.635-2.4.9-3.607a12.6 12.6 0 0 0 .214-1.964 15.394 15.394 0 0 1 .16-1.7c.176-1.041.4-2.09.607-3.1.2-.977.416-1.986.587-2.984.2-1.193.384-2.412.557-3.592.27-1.847.551-3.757.938-5.616a46.928 46.928 0 0 0 .844-6.261q.034-.649.079-1.3c.063-1.246.1-2.55.1-3.943a72.989 72.989 0 0 1 .6-8.046c.069-.619.138-1.238.2-1.857.189-1.8.458-3.615.717-5.373.1-.7.206-1.4.306-2.1q1.085-7.7 2.189-15.4a3.633 3.633 0 0 1 .23-.781c.034-.09.066-.174.092-.251l.045-.14 6.175.971-.039.179c-.059.274-.121.524-.179.761a7.859 7.859 0 0 0 -.247 1.277 3.624 3.624 0 0 1 -2.712 3.358 5.454 5.454 0 0 0 -3.154 4.073 10.884 10.884 0 0 1 -.327 1.166c-.265.729.112.968.75 1.3a4.95 4.95 0 0 1 .461.261c.469.312.685.136 1.088-.254.055-.054.111-.107.169-.161a9.47 9.47 0 0 1 1.362-.971c.2-.125.4-.251.6-.383l.118-.079.458.46zm27.62 34.456c.166 1.588.332 3.175.483 4.763a1.5 1.5 0 0 1 -.365 1.226 1.457 1.457 0 0 1 -.871.246 3 3 0 0 1 -1.052-.21 2.028 2.028 0 0 1 -1.321-1.242q-.149-.739-.3-1.478c-.389-1.878-.791-3.82-1.046-5.746-.664-5.018-1.418-10.853-1.972-16.593-.357-3.7-.607-7.472-.848-11.117-.109-1.63-.217-3.26-.334-4.89l-.012-.172.318-.023q.03-.389.062-.776c.059-.713.119-1.45.149-2.174a1.068 1.068 0 0 1 .326-.831 1.105 1.105 0 0 1 .918-.142l.538.094c.815.144 1.656.293 2.487.366a1.46 1.46 0 0 1 1.07.426 1.4 1.4 0 0 1 .216 1.081 44.034 44.034 0 0 0 -.307 5.353c.085 4.034.25 8.02.471 12.763v.066c.176 3.772.358 7.673.665 11.5.202 2.508.465 5.052.727 7.512zm31.15-19.988q-.974-1.077-1.955-2.159c-1.447-1.6-2.944-3.245-4.4-4.887a26.794 26.794 0 0 0 -10.419-7.4c-1.179-.463-2.273-.862-3.344-1.221-.942-.316-1.88-.642-2.819-.97-2.4-.834-4.872-1.7-7.359-2.344a44.028 44.028 0 0 0 -5.121-.9c-1.092-.149-2.222-.3-3.322-.508a27.436 27.436 0 0 0 -10.14.4 10.226 10.226 0 0 0 -1.9.606 8.22 8.22 0 0 1 -2.762.716c-.331.169-.662.337-1 .5a4.143 4.143 0 0 1 -2.422.92l-.083.012a4.426 4.426 0 0 0 -1.166.423c-.179.084-.358.167-.54.241l-3.1 1.254-.041-.2a2.976 2.976 0 0 1 1.907-3.6c.458-.215.935-.408 1.4-.594.606-.245 1.232-.5 1.811-.8a22.675 22.675 0 0 1 6.359-1.888c1-.192 2.028-.39 3.019-.648a5 5 0 0 1 1.838.015l.11.014c.863.112 1.735.253 2.579.389.49.079.979.159 1.47.233q1.765.267 3.531.523c2.455.359 4.992.731 7.479 1.149 2.652.446 5.326 1.009 7.913 1.554l.37.078a39.206 39.206 0 0 1 4.045 1.04c.689.225 1.42.425 2.128.619a16.356 16.356 0 0 1 5.252 2.094 74.876 74.876 0 0 1 7.31 6.3c.9.84 1.821 1.709 2.746 2.545a1.828 1.828 0 0 1 .63 1.026c.106 1.358.17 2.722.233 4.042q.031.668.064 1.323l.025.484zm-56.678-22.083.693-3.358 5.781 1.416-.192.451-.1.052zm41.852 3.884.242-.707 14.743 1.246-.241 10.312-.615-.636c-4.145-4.288-8.06-8.339-13.96-10.162zm25.726 70.712c.085.5.171 1 .251 1.5a41.541 41.541 0 0 1 .566 5.36 2.163 2.163 0 0 1 -.538 1.654 2.316 2.316 0 0 1 -1.707.581h-.1c-1.425-.033-1.6-1.055-1.743-1.878-.019-.11-.037-.218-.059-.322-.389-1.91-.694-3.793-.9-5.6-.072-.611-.154-1.225-.236-1.839-.191-1.431-.382-2.9-.44-4.353a121.1 121.1 0 0 1 -1.357-14.943 1.5 1.5 0 0 1 -.1-.364l-.149-1.192a1.115 1.115 0 0 1 .051-.521c-.118-.77-.219-1.543-.281-2.312-.113-1.41-.1-2.847-.08-4.237.015-1.363.031-2.773-.075-4.149-.191-2.478-.5-4.994-.8-7.427-.167-1.361-.341-2.768-.492-4.154-.515-4.724-1.009-9.469-1.467-14.106a31.884 31.884 0 0 1 -.109-3.373c.019-2.006.056-3.985.1-6.079l.05-2.747 9.082.228-.087 1.139c-.052.669-.1 1.312-.142 1.956-.081 1.3-.21 2.621-.332 3.9a45.343 45.343 0 0 0 -.229 9.885 16.957 16.957 0 0 1 .067 2.377c-.008.483-.018.983 0 1.47.045 1.25.1 2.5.162 3.752.1 2.144.2 4.36.235 6.54.049 3.342.055 6.739.061 10.024 0 2.252.008 4.5.025 6.755.014 1.751.055 3.533.1 5.256.025 1.12.052 2.241.071 3.361.01.606.035 1.213.058 1.82a32.853 32.853 0 0 1 -.032 4.542 28 28 0 0 0 .578 7.499zm15.57-69.151a11.858 11.858 0 0 0 -5.441.008c-3.7 1.27-5.168 4.433-6.583 7.491-.259.561-.518 1.121-.79 1.667a26.781 26.781 0 0 0 -1.4 3.7c-.186.578-.371 1.154-.574 1.725l-.048.136-.807-.133-.051-.589c-.029-.316-.057-.631-.075-.946a15.032 15.032 0 0 1 1.926-7.518 14.837 14.837 0 0 1 10.131-8.264 6.944 6.944 0 0 1 1.84-.13 8.489 8.489 0 0 0 1.431-.05 5.571 5.571 0 0 1 3.966 1.252c.212.135.424.269.635.4a8.6 8.6 0 0 1 2.2 2.2c.114.145.227.29.342.432a3.209 3.209 0 0 1 .5 1.116c.05.168.1.337.163.5l.19.494-1.38-.894c-3.083-2.002-3.268-2.122-6.173-2.594zm-15.7 5.7.044-.578c.038-.511.079-1.019.119-1.524.1-1.292.2-2.511.259-3.761.039-.825.4-1.184 1.19-1.2.9-.019 1.811-.061 2.617-.1l.924-.042.368-.015zm26.248 7.312a29.643 29.643 0 0 0 .541 3.2 27.867 27.867 0 0 1 .564 3.432 91.821 91.821 0 0 0 2.4 15.617 36.375 36.375 0 0 1 .809 5.282c.078.766.16 1.559.262 2.332.041.312.07.627.1.941a13.917 13.917 0 0 0 .22 1.647 60.46 60.46 0 0 0 3.632 10.983 3.764 3.764 0 0 1 .163 2.2c-.108.5-.82.923-1.268 1.052a.4.4 0 0 1 -.111.015 1.651 1.651 0 0 1 -1.107-.746c-.125-.23-.254-.459-.383-.689a19.826 19.826 0 0 1 -1.664-3.492c-1.946-6.04-3.67-11.641-5.271-17.123a32.381 32.381 0 0 1 -1.54-10.248 14.7 14.7 0 0 0 -.236-3.545c-.412-1.945-.865-3.918-1.3-5.827-.615-2.681-1.252-5.454-1.785-8.2a31.6 31.6 0 0 1 -.434-4.548c-.032-.678-.065-1.379-.117-2.064l-.009-.121.531-.239.082.062c.2.15.4.3.591.459a17.125 17.125 0 0 0 1.467 1.071 1.381 1.381 0 0 0 1 .2c.185-.083.354-.5.38-.827a3.791 3.791 0 0 0 -1.112-3.481 10.364 10.364 0 0 1 -1.344-1.545 6.108 6.108 0 0 0 -2.505-2.261c-.269-.111-.413-.395-.6-.755-.085-.169-.183-.36-.3-.549l-.119-.189 7.175-2.262.16 2.76c.108 1.884.213 3.7.328 5.516q.1 1.592.189 3.186c.166 2.885.338 5.849.612 8.761zm3.2-33.058-.638 3.009c-.4 1.882-.774 3.656-1.154 5.43a4.292 4.292 0 0 1 -3.251 3.52 42.673 42.673 0 0 0 -4.652 1.518 3.084 3.084 0 0 1 -.833.194c-.3.134-.607.258-.92.366a6.538 6.538 0 0 1 -2.238.655c-.029.051-.061.094-.088.15l-.034.071-.076.021c-.74.209-1.477.434-2.213.659a47.988 47.988 0 0 1 -5.1 1.352 49.737 49.737 0 0 1 -7.993.846c-1.156.027-2.348.04-3.593.04-2.677 0-5.6-.063-8.957-.19-4.488-.171-8.545-.429-12.4-.787-4.334-.4-9.083-.953-14.518-1.676-1.418-.19-2.849-.464-4.232-.729-1.465-.281-2.98-.571-4.48-.76a107.229 107.229 0 0 1 -15.019-2.673c-1.359-.371-2.776-.642-4.146-.9-1.227-.234-2.5-.477-3.726-.791a33.172 33.172 0 0 1 -4.4-1.583l-.5-.209a2.035 2.035 0 0 1 -.959-1.075 13.279 13.279 0 0 1 -.736-8.514l.045-.179.174.056c.292.093.58.19.865.287.619.209 1.2.407 1.81.552l1.861.449c3.138.758 6.384 1.542 9.594 2.228 4.218.9 8.353 1.711 12.29 2.4 2.953.519 5.971.968 8.888 1.4q1.5.223 2.995.449c.6.09 1.205.162 1.795.231.459.054.918.108 1.376.17 1.39.191 2.78.4 4.169.6 3.076.453 6.257.922 9.4 1.222a43.916 43.916 0 0 0 5 .092c1.27-.024 2.583-.05 3.871.011a79.255 79.255 0 0 0 13.849-.511q.86-.111 1.721-.216c2.081-.259 4.232-.527 6.318-.91a27.533 27.533 0 0 0 2.8-.72 14.276 14.276 0 0 1 5.926-.848.833.833 0 0 0 .409-.056c.659-.282 1.314-.571 1.969-.859 1.185-.521 2.411-1.061 3.637-1.552s2.486-.944 3.822-1.423c.633-.227 1.289-.462 1.979-.715zm-3.871-3.716c.962.314 1.871.612 2.771.983.605.25.755.572.774.8s-.078.578-.651.936l-.143.09a3.418 3.418 0 0 1 -.888.45 29.154 29.154 0 0 0 -4.732 1.875c-.075.072-.143.152-.22.223a1.128 1.128 0 0 1 -.666.3c-.077.072-.149.15-.228.221a1.173 1.173 0 0 1 -.968.313l-.685.36a7.592 7.592 0 0 1 -2.141.622c-.328.061-.667.125-.986.205l-.127.031-.307-.548.086-.092a18.717 18.717 0 0 1 3.088-2.486 1.222 1.222 0 0 1 .109-.114c.9-.8 1.783-1.627 2.6-2.512.349-.4.7-.809 1.048-1.211a.97.97 0 0 1 .295-.22.95.95 0 0 1 .346-.189l.013-.007c.061-.114.127-.223.183-.343l.065-.142.148.05c.408.146.814.278 1.217.408zm7.226-43.149a44.486 44.486 0 0 1 .2 11.385l-.057.83a109.627 109.627 0 0 1 -2.334 14.7q-.295 1.435-.586 2.872a4.374 4.374 0 0 1 -.744 1.492l-.156.238c-.347.533-.717 1.066-1.074 1.58-.589.849-1.2 1.725-1.715 2.625-.669 1.16-1.3 2.366-1.915 3.532-.576 1.1-1.173 2.233-1.8 3.331a17.138 17.138 0 0 1 -4.466 4.618c-.8.64-1.621 1.3-2.36 2.009a2.466 2.466 0 0 1 -.826.451c-.127.05-.255.1-.374.159l-.1.05-.48-.434.08-.123c.074-.114.145-.231.217-.347a6.175 6.175 0 0 1 .518-.764c.624-.747 1.293-1.485 1.941-2.2a32.055 32.055 0 0 0 3.831-4.8c.624-1.038 1.3-2.073 1.957-3.074 1.881-2.873 3.826-5.843 4.738-9.234.208-.773.447-1.553.677-2.307a37.032 37.032 0 0 0 1.141-4.36c.145-.829.338-1.667.526-2.476.571-2.475 1.161-5.034.457-7.661a.509.509 0 0 1 .1-.379.638.638 0 0 0 .066-.137c.086-.323.195-.649.3-.964a6.352 6.352 0 0 0 .453-2.093c-.078-3.115-.333-6.252-.6-9.177a20.212 20.212 0 0 0 -.365-2.2c-.121-.6-.247-1.216-.325-1.831-.035-.269.177-.514.382-.751a2.9 2.9 0 0 0 .22-.274l.1-.154.146.114a3.636 3.636 0 0 0 .32.212c.28.172.569.349.648.617a50.674 50.674 0 0 1 1.261 4.93zm3.024-8.965c-2.695.959-5.492 1.789-8.2 2.592l-1.289.383a8 8 0 0 1 -1.58.243c-.276.024-.565.049-.869.088l-.21.027.017-.21c.035-.456.059-.895.083-1.321.052-.931.1-1.809.238-2.673a2.325 2.325 0 0 1 2.488-2.182 10.789 10.789 0 0 0 2.261-.434c.509-.136 1.036-.276 1.566-.363a5.287 5.287 0 0 0 3.984-2.619 14.413 14.413 0 0 0 .993-2.57c.145-.46.295-.937.467-1.4a1.9 1.9 0 0 1 .361-.54c.059-.069.117-.137.17-.207l.153-.207.133.221a2.419 2.419 0 0 0 .152.215 1.073 1.073 0 0 1 .291.6c.01.693 0 1.4-.012 2.076-.013.806-.026 1.64 0 2.459a4.117 4.117 0 0 0 .085.707c.074 1.481.106 2.96.084 4.443a5.5 5.5 0 0 1 -1.365.677z" fill="#0c3117" transform="translate(-1930.959 -527.096)"/></svg>